<svg width="93" height="135" viewBox="0 0 93 135" fill="none" xmlns="http://www.w3.org/2000/svg">
<path d="M92.1776 107.369L74.876 90.7493C73.793 89.7091 73.7774 87.9865 74.8413 86.927L89.557 72.2718C91.2515 70.5842 90.0514 67.6987 87.6549 67.6987H5.43041C3.03253 67.6987 1.83303 70.5872 3.53045 72.2739L65.5785 133.931C66.6293 134.975 68.3309 134.974 69.3805 133.929L92.2122 111.191C93.2762 110.132 93.2605 108.409 92.1776 107.369Z" fill="#252525"/>
<path d="M0.82251 27.6238L18.1241 44.4129C19.2071 45.4638 19.2227 47.2039 18.1588 48.2743L3.44314 63.079C1.74859 64.7838 2.94873 67.6987 5.34518 67.6987H87.5697C89.9676 67.6987 91.1671 64.7808 89.4697 63.0769L27.4216 0.790504C26.3708 -0.264343 24.6693 -0.263397 23.6196 0.79261L0.787872 23.7625C-0.276031 24.8328 -0.260429 26.573 0.82251 27.6238Z" fill="#00C17C"/>
</svg>
