<svg width="12" height="12" viewBox="0 0 12 12" fill="none" xmlns="http://www.w3.org/2000/svg">
<circle cx="6" cy="6" r="6" fill="#00C17C"/>
<path d="M8.71155 3.73739C8.61858 3.73057 8.52825 3.77035 8.47068 3.84346L5.40989 7.57185L3.87004 5.918C3.80529 5.83433 3.69887 5.79408 3.59464 5.8147C3.49101 5.83484 3.40712 5.9117 3.37842 6.01331C3.34966 6.11547 3.38022 6.22464 3.45838 6.29655L5.21904 8.19052C5.27443 8.24892 5.35256 8.28058 5.43281 8.27774C5.51365 8.27442 5.58885 8.23685 5.63973 8.17459L8.90817 4.1998C8.97764 4.11861 8.99488 4.00583 8.95321 3.90758C8.91148 3.80987 8.81778 3.74399 8.71155 3.73739Z" fill="white"/>
</svg>
