<svg width="61" height="49" viewBox="0 0 61 49" fill="none" xmlns="http://www.w3.org/2000/svg">
<path d="M30.5 0.833252C27.7539 0.833252 25.1203 1.92413 23.1785 3.86592C21.2367 5.8077 20.1459 8.44132 20.1459 11.1874H26.0625C26.0625 10.0105 26.53 8.88182 27.3622 8.04963C28.1944 7.21744 29.3231 6.74992 30.5 6.74992C31.6769 6.74992 32.8056 7.21744 33.6378 8.04963C34.47 8.88182 34.9375 10.0105 34.9375 11.1874C34.9375 12.3643 34.47 13.493 33.6378 14.3252C32.8056 15.1574 31.6769 15.6249 30.5 15.6249C28.8729 15.6249 27.5417 16.9562 27.5417 18.5833V23.7603L2.10002 42.8416C1.6033 43.2141 1.23638 43.7335 1.05125 44.3262C0.866118 44.9188 0.872152 45.5547 1.0685 46.1438C1.26485 46.7328 1.64155 47.2451 2.14525 47.6082C2.64895 47.9712 3.25412 48.1666 3.87502 48.1666H57.125C57.7459 48.1666 58.3511 47.9712 58.8548 47.6082C59.3585 47.2451 59.7352 46.7328 59.9315 46.1438C60.1279 45.5547 60.1339 44.9188 59.9488 44.3262C59.7637 43.7335 59.3967 43.2141 58.9 42.8416L33.4584 23.7603V21.0978C35.5932 20.4613 37.4658 19.1533 38.7982 17.3679C40.1306 15.5826 40.8516 13.4151 40.8542 11.1874C40.8542 8.44132 39.7633 5.8077 37.8215 3.86592C35.8797 1.92413 33.2461 0.833252 30.5 0.833252ZM30.5 28.9374L48.25 42.2499H12.75L30.5 28.9374Z" fill="#343541"/>
</svg>
