<svg width="11" height="11" viewBox="0 0 11 11" fill="none" xmlns="http://www.w3.org/2000/svg">
<path d="M0.634615 0C0.466305 0 0.304888 0.0668611 0.185874 0.185875C0.066861 0.304888 0 0.466305 0 0.634615V10.5769C0 10.6891 0.0445741 10.7967 0.123916 10.8761C0.203259 10.9554 0.31087 11 0.423077 11C0.535284 11 0.642895 10.9554 0.722237 10.8761C0.80158 10.7967 0.846154 10.6891 0.846154 10.5769V7.61538H9.73077C9.80934 7.61538 9.88636 7.59351 9.95319 7.5522C10.02 7.51089 10.074 7.45179 10.1092 7.38151C10.1443 7.31124 10.1592 7.23257 10.1521 7.15431C10.1451 7.07606 10.1164 7.00132 10.0692 6.93846L7.72115 3.80769L10.0692 0.676923C10.1164 0.614067 10.1451 0.539325 10.1521 0.461072C10.1592 0.382819 10.1443 0.304147 10.1092 0.233871C10.074 0.163596 10.02 0.104493 9.95319 0.0631862C9.88636 0.0218793 9.80934 0 9.73077 0H0.634615Z" fill="#252525"/>
</svg>
