<svg width="13" height="14" viewBox="0 0 13 14" fill="none" xmlns="http://www.w3.org/2000/svg">
<rect x="0.720032" y="11.5381" width="11.76" height="1.61538" rx="0.807692" fill="#343541"/>
<path d="M2.30467 8.57708L1.56262 10.3603C1.54123 10.4117 1.536 10.468 1.54756 10.5222C1.55913 10.5764 1.58698 10.6261 1.62768 10.6652C1.66837 10.7044 1.72011 10.7312 1.77649 10.7423C1.83286 10.7534 1.89139 10.7484 1.94482 10.7278L3.79996 10.0143C4.09571 9.90063 4.36436 9.7304 4.58964 9.51392L11.01 3.33992C11.2439 3.115 11.3754 2.80993 11.3754 2.49184C11.3754 2.17375 11.2439 1.86869 11.01 1.64377C10.7761 1.41884 10.4588 1.29248 10.128 1.29248C9.7972 1.29248 9.47994 1.41884 9.24602 1.64377L2.82505 7.81777C2.59992 8.03438 2.42288 8.29271 2.30467 8.57708Z" fill="#343541"/>
</svg>
