<svg width="14" height="14" viewBox="0 0 14 14" fill="none" xmlns="http://www.w3.org/2000/svg">
<ellipse cx="6.93178" cy="7.38837" rx="6.20455" ry="6.42353" fill="white"/>
<rect x="3.59076" y="9.85889" width="6.68182" height="0.988235" rx="0.494118" fill="#343541"/>
<g clip-path="url(#clip0_1784_1448)">
<path d="M4.49114 8.04777L4.06952 9.13868C4.05737 9.17011 4.05439 9.20454 4.06096 9.2377C4.06753 9.27086 4.08336 9.3013 4.10648 9.32524C4.1296 9.34917 4.159 9.36556 4.19103 9.37236C4.22307 9.37916 4.25632 9.37608 4.28668 9.3635L5.34073 8.927C5.50877 8.85747 5.66142 8.75333 5.78942 8.62089L9.43736 4.84386C9.57027 4.70626 9.64494 4.51963 9.64494 4.32504C9.64494 4.13044 9.57027 3.94381 9.43736 3.80621C9.30445 3.66861 9.12418 3.59131 8.93622 3.59131C8.74826 3.59131 8.56799 3.66861 8.43508 3.80621L4.78681 7.58325C4.65889 7.71577 4.5583 7.8738 4.49114 8.04777Z" fill="#343541"/>
</g>
<defs>
<clipPath id="clip0_1784_1448">
<rect width="6.68182" height="6.91765" fill="white" transform="translate(3.59076 2.94141)"/>
</clipPath>
</defs>
</svg>
