<svg width="13" height="13" viewBox="0 0 13 13" fill="none" xmlns="http://www.w3.org/2000/svg">
<circle cx="6.5" cy="6.5" r="6.5" fill="#00C17C"/>
<rect x="3" y="9" width="7" height="1" rx="0.5" fill="white"/>
<g clip-path="url(#clip0_1843_1332)">
<path d="M3.94325 7.16723L3.50155 8.27113C3.48882 8.30293 3.4857 8.33777 3.49258 8.37133C3.49947 8.40488 3.51605 8.43568 3.54027 8.4599C3.56449 8.48413 3.59529 8.50071 3.62885 8.50759C3.6624 8.51447 3.69724 8.51136 3.72905 8.49863L4.8333 8.05693C5.00934 7.98657 5.16925 7.88119 5.30335 7.74718L9.125 3.92518C9.26424 3.78594 9.34246 3.59709 9.34246 3.40018C9.34246 3.20326 9.26424 3.01442 9.125 2.87518C8.98576 2.73594 8.79691 2.65771 8.6 2.65771C8.40308 2.65771 8.21423 2.73594 8.075 2.87518L4.253 6.69718C4.11899 6.83127 4.01361 6.99119 3.94325 7.16723Z" fill="white"/>
</g>
<defs>
<clipPath id="clip0_1843_1332">
<rect width="7" height="7" fill="white" transform="translate(3 2)"/>
</clipPath>
</defs>
</svg>
