<svg width="67" height="49" viewBox="0 0 67 49" fill="none" xmlns="http://www.w3.org/2000/svg">
<path d="M15.75 48.1667C13.2847 48.1667 11.1892 47.3039 9.46352 45.5782C7.73783 43.8525 6.87498 41.757 6.87498 39.2917H3.91665C3.07845 39.2917 2.37634 39.0077 1.81031 38.4397C1.24429 37.8717 0.960285 37.1696 0.958313 36.3334V6.75004C0.958313 5.12296 1.53815 3.73057 2.69781 2.57287C3.85748 1.41518 5.24987 0.835346 6.87498 0.833374H42.375C44.0021 0.833374 45.3954 1.41321 46.5551 2.57287C47.7148 3.73254 48.2936 5.12493 48.2916 6.75004V12.6667H54.2083C55.1451 12.6667 56.0326 12.8767 56.8708 13.2968C57.709 13.7169 58.3993 14.2958 58.9417 15.0334L65.45 23.6865C65.6472 23.933 65.7951 24.2042 65.8937 24.5C65.9923 24.7959 66.0416 25.1164 66.0416 25.4615V36.3334C66.0416 37.1716 65.7577 37.8747 65.1897 38.4427C64.6217 39.0107 63.9195 39.2937 63.0833 39.2917H60.125C60.125 41.757 59.2621 43.8525 57.5364 45.5782C55.8107 47.3039 53.7153 48.1667 51.25 48.1667C48.7847 48.1667 46.6892 47.3039 44.9635 45.5782C43.2378 43.8525 42.375 41.757 42.375 39.2917H24.625C24.625 41.757 23.7621 43.8525 22.0364 45.5782C20.3107 47.3039 18.2153 48.1667 15.75 48.1667ZM15.75 42.25C16.5882 42.25 17.2913 41.966 17.8593 41.398C18.4273 40.83 18.7103 40.1279 18.7083 39.2917C18.7083 38.4535 18.4243 37.7514 17.8563 37.1854C17.2883 36.6193 16.5862 36.3353 15.75 36.3334C14.9118 36.3334 14.2097 36.6174 13.6436 37.1854C13.0776 37.7534 12.7936 38.4555 12.7916 39.2917C12.7916 40.1299 13.0756 40.833 13.6436 41.401C14.2116 41.969 14.9138 42.252 15.75 42.25ZM6.87498 33.375H9.24165C10.0798 32.4875 11.0413 31.7726 12.126 31.2302C13.2107 30.6879 14.4187 30.4167 15.75 30.4167C17.0812 30.4167 18.2892 30.6879 19.3739 31.2302C20.4587 31.7726 21.4201 32.4875 22.2583 33.375H42.375V6.75004H6.87498V33.375ZM51.25 42.25C52.0882 42.25 52.7913 41.966 53.3593 41.398C53.9273 40.83 54.2103 40.1279 54.2083 39.2917C54.2083 38.4535 53.9243 37.7514 53.3563 37.1854C52.7883 36.6193 52.0862 36.3353 51.25 36.3334C50.4118 36.3334 49.7097 36.6174 49.1437 37.1854C48.5776 37.7534 48.2936 38.4555 48.2916 39.2917C48.2916 40.1299 48.5756 40.833 49.1437 41.401C49.7117 41.969 50.4138 42.252 51.25 42.25ZM48.2916 27.4584H60.8646L54.2083 18.5834H48.2916V27.4584Z" fill="#343541"/>
</svg>
