<svg width="17" height="9" viewBox="0 0 17 9" fill="none" xmlns="http://www.w3.org/2000/svg">
<path d="M1.375 6.29199C4.225 -0.0413412 12.775 -0.0413412 15.625 6.29199" stroke="#343541" stroke-width="1.5" stroke-linecap="round" stroke-linejoin="round"/>
<path d="M8.5 8.04199C8.18811 8.04199 7.87928 7.98056 7.59113 7.86121C7.30298 7.74185 7.04116 7.56691 6.82062 7.34637C6.60008 7.12583 6.42514 6.86401 6.30579 6.57587C6.18643 6.28772 6.125 5.97888 6.125 5.66699C6.125 5.3551 6.18643 5.04627 6.30579 4.75812C6.42514 4.46997 6.60008 4.20815 6.82062 3.98761C7.04116 3.76707 7.30298 3.59213 7.59113 3.47278C7.87928 3.35342 8.18811 3.29199 8.5 3.29199C9.12989 3.29199 9.73398 3.54221 10.1794 3.98761C10.6248 4.43301 10.875 5.0371 10.875 5.66699C10.875 6.29688 10.6248 6.90097 10.1794 7.34637C9.73398 7.79177 9.12989 8.04199 8.5 8.04199Z" fill="#343541" stroke="#343541" stroke-width="1.5" stroke-linecap="round" stroke-linejoin="round"/>
</svg>
