<svg width="10" height="9" viewBox="0 0 10 9" fill="none" xmlns="http://www.w3.org/2000/svg">
<g clip-path="url(#clip0_3041_3114)">
<path d="M9.48267 0.170435C9.38544 -0.0492913 9.10767 -0.0580804 8.99135 0.149341C8.45315 1.0968 7.48961 1.68743 6.38892 1.68743H5.00003C3.15975 1.68743 1.66669 3.19915 1.66669 5.06243C1.66669 5.18547 1.68058 5.30325 1.69274 5.42278C2.80037 4.61946 4.39933 3.93743 6.66669 3.93743C6.81947 3.93743 6.94447 4.06399 6.94447 4.21868C6.94447 4.37336 6.81947 4.49993 6.66669 4.49993C2.30211 4.49993 0.451416 7.20872 0.0416933 8.22649C-0.07289 8.51301 0.0625267 8.83997 0.345513 8.95774C0.630235 9.07727 0.953152 8.9384 1.07121 8.65364C1.09725 8.59036 1.43405 7.81165 2.31947 7.06106C2.88197 7.83274 3.95142 8.56926 5.35593 8.41809C8.08162 8.2177 10 5.7427 10 2.71223C10 1.82981 9.81253 0.915748 9.48267 0.170435Z" fill="#00C17C"/>
</g>
<defs>
<clipPath id="clip0_3041_3114">
<rect width="10" height="9" fill="white"/>
</clipPath>
</defs>
</svg>
