<svg width="12" height="11" viewBox="0 0 12 11" fill="none" xmlns="http://www.w3.org/2000/svg">
<path d="M5.29821 10.0238L5.29785 10.0234C3.74793 8.61926 2.48156 7.4701 1.59975 6.39224C0.720672 5.31773 0.25 4.34471 0.25 3.297C0.25 1.58327 1.58956 0.25 3.3 0.25C4.26851 0.25 5.20213 0.701743 5.81036 1.40977L6 1.63052L6.18964 1.40977C6.79787 0.701743 7.73149 0.25 8.7 0.25C10.4104 0.25 11.75 1.58327 11.75 3.297C11.75 4.34471 11.2793 5.31773 10.4003 6.39224C9.51844 7.4701 8.25207 8.61926 6.70215 10.0234L6.70179 10.0238L6 10.6621L5.29821 10.0238Z" stroke-width="0.5"/>
</svg>
