<svg width="52" height="47" viewBox="0 0 52 47" fill="none" xmlns="http://www.w3.org/2000/svg">
<path d="M23.8991 41.7579L23.8955 41.7546C17.1508 35.7296 11.7558 30.8975 8.01772 26.3923C4.30592 21.9188 2.5 18.081 2.5 14.0872C2.5 7.59162 7.63424 2.5 14.3 2.5C18.0821 2.5 21.7431 4.24724 24.115 6.96976L26 9.13331L27.885 6.96976C30.2569 4.24724 33.9179 2.5 37.7 2.5C44.3658 2.5 49.5 7.59162 49.5 14.0872C49.5 18.081 47.6941 21.9188 43.9823 26.3923C40.2442 30.8975 34.8492 35.7296 28.1045 41.7546L28.1009 41.7579L26 43.6419L23.8991 41.7579Z" stroke="#343541" stroke-width="5"/>
</svg>
