<svg width="17" height="17" viewBox="0 0 17 17" fill="none" xmlns="http://www.w3.org/2000/svg">
<g clip-path="url(#clip0_1707_1628)">
<path d="M13.8956 7.87425H8.80046V2.77911C8.80046 2.65627 8.75165 2.53845 8.66479 2.45158C8.57792 2.36472 8.46011 2.31592 8.33726 2.31592C8.21441 2.31592 8.0966 2.36472 8.00973 2.45158C7.92287 2.53845 7.87407 2.65627 7.87407 2.77911V7.87425H2.77893C2.65608 7.87425 2.53827 7.92305 2.4514 8.00992C2.36453 8.09678 2.31573 8.2146 2.31573 8.33745C2.31345 8.39764 2.32409 8.45763 2.34695 8.51337C2.36981 8.56911 2.40435 8.6193 2.44824 8.66056C2.49214 8.70182 2.54437 8.73319 2.60141 8.75256C2.65845 8.77193 2.71898 8.77885 2.77893 8.77285H7.87407V13.8958C7.87407 14.0186 7.92287 14.1364 8.00973 14.2233C8.0966 14.3102 8.21441 14.359 8.33726 14.359C8.46011 14.359 8.57792 14.3102 8.66479 14.2233C8.75165 14.1364 8.80046 14.0186 8.80046 13.8958V8.80064H13.8956C14.0184 8.80064 14.1363 8.75184 14.2231 8.66497C14.31 8.57811 14.3588 8.46029 14.3588 8.33745C14.3588 8.2146 14.31 8.09678 14.2231 8.00992C14.1363 7.92305 14.0184 7.87425 13.8956 7.87425Z" fill="#00C17C"/>
</g>
<defs>
<clipPath id="clip0_1707_1628">
<rect width="16.675" height="16.675" fill="white"/>
</clipPath>
</defs>
</svg>
