<svg width="37" height="32" viewBox="0 0 37 32" fill="none" xmlns="http://www.w3.org/2000/svg">
<path d="M0 4.24513C0 3.25327 0.804057 2.44922 1.79591 2.44922H27.9182C28.9101 2.44922 29.7142 3.25328 29.7142 4.24513V28.8981C29.7142 29.8899 28.9101 30.694 27.9182 30.694H1.79591C0.804057 30.694 0 29.8899 0 28.8981V4.24513Z" fill="#343541"/>
<path d="M1.7959 8.32609C1.7959 7.87525 2.16138 7.50977 2.61222 7.50977H27.1019C27.5528 7.50977 27.9182 7.87525 27.9182 8.32609V28.0811C27.9182 28.5319 27.5528 28.8974 27.1019 28.8974H2.61222C2.16138 28.8974 1.7959 28.5319 1.7959 28.0811V8.32609Z" fill="#F9F9F9"/>
<path d="M5.06055 2.44922H7.34625V4.40839H5.06055V2.44922Z" fill="#F9F9F9"/>
<path d="M8.0002 4.97875C8.0002 5.83535 7.1596 6.52976 6.12266 6.52976C5.08572 6.52976 4.24512 5.83535 4.24512 4.97875C4.24512 4.12215 5.08572 3.42773 6.12266 3.42773C7.1596 3.42773 8.0002 4.12215 8.0002 4.97875Z" fill="#F9F9F9"/>
<path d="M5.22461 0.816323C5.22461 0.36548 5.59009 0 6.04093 0H6.36746C6.8183 0 7.18378 0.36548 7.18378 0.816323V4.57141C7.18378 5.02225 6.8183 5.38773 6.36746 5.38773H6.04093C5.59009 5.38773 5.22461 5.02225 5.22461 4.57141V0.816323Z" fill="#343541"/>
<path d="M22.5303 2.44922H24.816V4.40839H22.5303V2.44922Z" fill="#F9F9F9"/>
<path d="M25.469 4.97875C25.469 5.83535 24.6283 6.52976 23.5914 6.52976C22.5545 6.52976 21.7139 5.83535 21.7139 4.97875C21.7139 4.12215 22.5545 3.42773 23.5914 3.42773C24.6283 3.42773 25.469 4.12215 25.469 4.97875Z" fill="#F9F9F9"/>
<path d="M22.6943 0.816323C22.6943 0.36548 23.0598 0 23.5107 0H23.8372C24.288 0 24.6535 0.36548 24.6535 0.816323V4.57141C24.6535 5.02225 24.288 5.38773 23.8372 5.38773H23.5107C23.0598 5.38773 22.6943 5.02225 22.6943 4.57141V0.816323Z" fill="#343541"/>
<path d="M7.18359 11.7548C7.18359 11.304 7.54907 10.9385 7.99992 10.9385H10.1224C10.5732 10.9385 10.9387 11.304 10.9387 11.7548V13.714C10.9387 14.1648 10.5732 14.5303 10.1224 14.5303H7.99992C7.54907 14.5303 7.18359 14.1648 7.18359 13.714V11.7548Z" fill="#343541"/>
<path d="M12.8984 11.7548C12.8984 11.304 13.2639 10.9385 13.7148 10.9385H15.8372C16.288 10.9385 16.6535 11.304 16.6535 11.7548V13.714C16.6535 14.1648 16.288 14.5303 15.8372 14.5303H13.7148C13.2639 14.5303 12.8984 14.1648 12.8984 13.714V11.7548Z" fill="#343541"/>
<path d="M18.6123 11.7548C18.6123 11.304 18.9778 10.9385 19.4286 10.9385H21.5511C22.0019 10.9385 22.3674 11.304 22.3674 11.7548V13.714C22.3674 14.1648 22.0019 14.5303 21.5511 14.5303H19.4286C18.9778 14.5303 18.6123 14.1648 18.6123 13.714V11.7548Z" fill="#343541"/>
<path d="M7.18359 17.3066C7.18359 16.8557 7.54907 16.4902 7.99992 16.4902H10.1224C10.5732 16.4902 10.9387 16.8557 10.9387 17.3066V19.2657C10.9387 19.7166 10.5732 20.0821 10.1224 20.0821H7.99992C7.54907 20.0821 7.18359 19.7166 7.18359 19.2657V17.3066Z" fill="#343541"/>
<path d="M12.8984 17.3066C12.8984 16.8557 13.2639 16.4902 13.7148 16.4902H15.8372C16.288 16.4902 16.6535 16.8557 16.6535 17.3066V19.2657C16.6535 19.7166 16.288 20.0821 15.8372 20.0821H13.7148C13.2639 20.0821 12.8984 19.7166 12.8984 19.2657V17.3066Z" fill="#343541"/>
<path d="M18.6123 17.3066C18.6123 16.8557 18.9778 16.4902 19.4286 16.4902H21.5511C22.0019 16.4902 22.3674 16.8557 22.3674 17.3066V19.2657C22.3674 19.7166 22.0019 20.0821 21.5511 20.0821H19.4286C18.9778 20.0821 18.6123 19.7166 18.6123 19.2657V17.3066Z" fill="#343541"/>
<path d="M2.44922 17.3066C2.44922 16.8557 2.8147 16.4902 3.26554 16.4902H5.38798C5.83882 16.4902 6.2043 16.8557 6.2043 17.3066V19.2657C6.2043 19.7166 5.83882 20.0821 5.38798 20.0821H3.26554C2.8147 20.0821 2.44922 19.7166 2.44922 19.2657V17.3066Z" fill="#343541"/>
<path d="M7.18359 22.204C7.18359 21.7532 7.54907 21.3877 7.99992 21.3877H10.1224C10.5732 21.3877 10.9387 21.7532 10.9387 22.204V24.1632C10.9387 24.614 10.5732 24.9795 10.1224 24.9795H7.99992C7.54907 24.9795 7.18359 24.614 7.18359 24.1632V22.204Z" fill="#343541"/>
<path d="M12.8984 22.204C12.8984 21.7532 13.2639 21.3877 13.7148 21.3877H15.8372C16.288 21.3877 16.6535 21.7532 16.6535 22.204V24.1632C16.6535 24.614 16.288 24.9795 15.8372 24.9795H13.7148C13.2639 24.9795 12.8984 24.614 12.8984 24.1632V22.204Z" fill="#343541"/>
<path d="M18.6123 22.204C18.6123 21.7532 18.9778 21.3877 19.4286 21.3877H21.5511C22.0019 21.3877 22.3674 21.7532 22.3674 22.204V24.1632C22.3674 24.614 22.0019 24.9795 21.5511 24.9795H19.4286C18.9778 24.9795 18.6123 24.614 18.6123 24.1632V22.204Z" fill="#343541"/>
<path d="M2.44922 22.204C2.44922 21.7532 2.8147 21.3877 3.26554 21.3877H5.38798C5.83882 21.3877 6.2043 21.7532 6.2043 22.204V24.1632C6.2043 24.614 5.83882 24.9795 5.38798 24.9795H3.26554C2.8147 24.9795 2.44922 24.614 2.44922 24.1632V22.204Z" fill="#343541"/>
<path d="M36.0813 23.8371C36.0813 28.3455 32.4265 32.0003 27.9181 32.0003C23.4097 32.0003 19.7549 28.3455 19.7549 23.8371C19.7549 19.3286 23.4097 15.6738 27.9181 15.6738C32.4265 15.6738 36.0813 19.3286 36.0813 23.8371Z" fill="#F9F9F9"/>
<path fill-rule="evenodd" clip-rule="evenodd" d="M27.9181 30.5309C31.615 30.5309 34.612 27.534 34.612 23.8371C34.612 20.1401 31.615 17.1432 27.9181 17.1432C24.2212 17.1432 21.2243 20.1401 21.2243 23.8371C21.2243 27.534 24.2212 30.5309 27.9181 30.5309ZM27.9181 32.0003C32.4265 32.0003 36.0813 28.3455 36.0813 23.8371C36.0813 19.3286 32.4265 15.6738 27.9181 15.6738C23.4097 15.6738 19.7549 19.3286 19.7549 23.8371C19.7549 28.3455 23.4097 32.0003 27.9181 32.0003Z" fill="#343541"/>
<path d="M26.7754 19.8364C26.7754 19.3405 27.1774 18.9385 27.6733 18.9385C28.1693 18.9385 28.5713 19.3405 28.5713 19.8364V25.0609C28.5713 25.5568 28.1693 25.9589 27.6733 25.9589C27.1774 25.9589 26.7754 25.5568 26.7754 25.0609V19.8364Z" fill="#343541"/>
<path d="M31.9185 24.3262C32.4144 24.3262 32.8164 24.7282 32.8164 25.2241C32.8164 25.7201 32.4144 26.1221 31.9185 26.1221H27.6736C27.1776 26.1221 26.7756 25.7201 26.7756 25.2241C26.7756 24.7282 27.1776 24.3262 27.6736 24.3262H31.9185Z" fill="#343541"/>
</svg>
