<svg width="33" height="33" viewBox="0 0 33 33" fill="none" xmlns="http://www.w3.org/2000/svg">
<path d="M26.1934 6.75133C24.9328 5.47798 23.4312 4.46837 21.7764 3.7814C20.1215 3.09443 18.3464 2.74384 16.5546 2.75008C9.04711 2.75008 2.92836 8.86883 2.92836 16.3763C2.92836 18.7826 3.56086 21.1201 4.74336 23.1826L2.81836 30.2501L10.0371 28.3526C12.0309 29.4388 14.2721 30.0163 16.5546 30.0163C24.0621 30.0163 30.1809 23.8976 30.1809 16.3901C30.1809 12.7463 28.7646 9.32258 26.1934 6.75133ZM16.5546 27.7063C14.5196 27.7063 12.5259 27.1563 10.7796 26.1251L10.3671 25.8776L6.07711 27.0051L7.21836 22.8251L6.94336 22.3988C5.81276 20.5934 5.21243 18.5065 5.21086 16.3763C5.21086 10.1338 10.2984 5.04633 16.5409 5.04633C19.5659 5.04633 22.4121 6.22883 24.5434 8.37383C25.5986 9.42428 26.4349 10.6737 27.0038 12.0498C27.5726 13.4258 27.8627 14.9011 27.8571 16.3901C27.8846 22.6326 22.7971 27.7063 16.5546 27.7063ZM22.7696 19.2363C22.4259 19.0713 20.7484 18.2463 20.4459 18.1226C20.1296 18.0126 19.9096 17.9576 19.6759 18.2876C19.4421 18.6313 18.7959 19.4013 18.6034 19.6213C18.4109 19.8551 18.2046 19.8826 17.8609 19.7038C17.5171 19.5388 16.4171 19.1676 15.1246 18.0126C14.1071 17.1051 13.4334 15.9913 13.2271 15.6476C13.0346 15.3038 13.1996 15.1251 13.3784 14.9463C13.5296 14.7951 13.7221 14.5476 13.8871 14.3551C14.0521 14.1626 14.1209 14.0113 14.2309 13.7913C14.3409 13.5576 14.2859 13.3651 14.2034 13.2001C14.1209 13.0351 13.4334 11.3576 13.1584 10.6701C12.8834 10.0101 12.5946 10.0926 12.3884 10.0788H11.7284C11.4946 10.0788 11.1371 10.1613 10.8209 10.5051C10.5184 10.8488 9.63836 11.6738 9.63836 13.3513C9.63836 15.0288 10.8621 16.6513 11.0271 16.8713C11.1921 17.1051 13.4334 20.5426 16.8434 22.0138C17.6546 22.3713 18.2871 22.5776 18.7821 22.7288C19.5934 22.9901 20.3359 22.9488 20.9271 22.8663C21.5871 22.7701 22.9484 22.0413 23.2234 21.2438C23.5121 20.4463 23.5121 19.7726 23.4159 19.6213C23.3196 19.4701 23.1134 19.4013 22.7696 19.2363Z" fill="#343541"/>
</svg>
