<svg width="144" height="208" viewBox="0 0 144 208" fill="none" xmlns="http://www.w3.org/2000/svg">
<path d="M141.238 164.265L115.012 139.073C113.37 137.496 113.347 134.885 114.959 133.279L137.265 111.065C139.834 108.507 138.015 104.133 134.382 104.133H9.74713C6.11245 104.133 4.29426 108.511 6.86719 111.068L100.919 204.527C102.512 206.11 105.091 206.108 106.682 204.524L141.29 170.058C142.903 168.453 142.879 165.841 141.238 164.265Z" fill="#252525" stroke="white"/>
<path d="M2.76235 43.3875L28.9879 68.8363C30.6295 70.4292 30.6532 73.0668 29.0405 74.6893L6.73467 97.1301C4.16609 99.7143 5.98525 104.133 9.61777 104.133H134.253C137.888 104.133 139.706 99.7097 137.133 97.1269L43.081 2.71389C41.4882 1.11496 38.9091 1.11639 37.3179 2.71708L2.70984 37.5346C1.0972 39.1569 1.12085 41.7947 2.76235 43.3875Z" fill="#00C17C" stroke="white"/>
</svg>
