<svg width="74" height="74" viewBox="0 0 74 74" fill="none" xmlns="http://www.w3.org/2000/svg">
<path d="M72 72L48.6667 48.6667M2 29.2222C2 32.7971 2.70412 36.337 4.07217 39.6397C5.44021 42.9425 7.44539 45.9434 9.9732 48.4712C12.501 50.9991 15.502 53.0042 18.8047 54.3723C22.1075 55.7403 25.6473 56.4444 29.2222 56.4444C32.7971 56.4444 36.337 55.7403 39.6397 54.3723C42.9425 53.0042 45.9434 50.9991 48.4712 48.4712C50.9991 45.9434 53.0042 42.9425 54.3723 39.6397C55.7403 36.337 56.4444 32.7971 56.4444 29.2222C56.4444 25.6473 55.7403 22.1075 54.3723 18.8047C53.0042 15.502 50.9991 12.501 48.4712 9.9732C45.9434 7.44539 42.9425 5.44021 39.6397 4.07217C36.337 2.70412 32.7971 2 29.2222 2C25.6473 2 22.1075 2.70412 18.8047 4.07217C15.502 5.44021 12.501 7.44539 9.9732 9.9732C7.44539 12.501 5.44021 15.502 4.07217 18.8047C2.70412 22.1075 2 25.6473 2 29.2222Z" stroke="#343541" stroke-width="3" stroke-linecap="round" stroke-linejoin="round"/>
</svg>
