<svg width="12" height="13" viewBox="0 0 12 13" fill="none" xmlns="http://www.w3.org/2000/svg">
<mask id="path-1-inside-1_4568_2931" fill="white">
<path d="M11.1429 10.5238V11.1429H0V10.5238L1.2381 9.28572V5.57143C1.2381 3.65238 2.49476 1.96238 4.33333 1.41762V1.2381C4.33333 0.909732 4.46378 0.594818 4.69596 0.36263C4.92815 0.130442 5.24307 0 5.57143 0C5.89979 0 6.21471 0.130442 6.44689 0.36263C6.67908 0.594818 6.80952 0.909732 6.80952 1.2381V1.41762C8.6481 1.96238 9.90476 3.65238 9.90476 5.57143V9.28572L11.1429 10.5238ZM6.80952 11.7619C6.80952 12.0903 6.67908 12.4052 6.44689 12.6374C6.21471 12.8696 5.89979 13 5.57143 13C5.24307 13 4.92815 12.8696 4.69596 12.6374C4.46378 12.4052 4.33333 12.0903 4.33333 11.7619"/>
</mask>
<path d="M11.1429 10.5238H12.0429V10.151L11.7793 9.88741L11.1429 10.5238ZM11.1429 11.1429V12.0429H12.0429V11.1429H11.1429ZM0 11.1429H-0.9V12.0429H0V11.1429ZM0 10.5238L-0.636396 9.88741L-0.9 10.151V10.5238H0ZM1.2381 9.28572L1.87449 9.92211L2.1381 9.65851V9.28572H1.2381ZM4.33333 1.41762L4.58901 2.28054L5.23333 2.08963V1.41762H4.33333ZM5.57143 0V-0.9V0ZM6.80952 1.41762H5.90952V2.08963L6.55384 2.28054L6.80952 1.41762ZM9.90476 9.28572H9.00476V9.65851L9.26837 9.92211L9.90476 9.28572ZM10.2429 10.5238V11.1429H12.0429V10.5238H10.2429ZM11.1429 10.2429H0V12.0429H11.1429V10.2429ZM0.9 11.1429V10.5238H-0.9V11.1429H0.9ZM0.636396 11.1602L1.87449 9.92211L0.601699 8.64932L-0.636396 9.88741L0.636396 11.1602ZM2.1381 9.28572V5.57143H0.338095V9.28572H2.1381ZM2.1381 5.57143C2.1381 4.04906 3.13442 2.71153 4.58901 2.28054L4.07765 0.554701C1.85511 1.21323 0.338095 3.2557 0.338095 5.57143H2.1381ZM5.23333 1.41762V1.2381H3.43333V1.41762H5.23333ZM5.23333 1.2381C5.23333 1.14843 5.26895 1.06243 5.33236 0.999026L4.05957 -0.273766C3.6586 0.127204 3.43333 0.671037 3.43333 1.2381H5.23333ZM5.33236 0.999026C5.39576 0.935621 5.48176 0.9 5.57143 0.9V-0.9C5.00437 -0.9 4.46054 -0.674737 4.05957 -0.273766L5.33236 0.999026ZM5.57143 0.9C5.6611 0.9 5.74709 0.935621 5.8105 0.999026L7.08329 -0.273766C6.68232 -0.674737 6.13849 -0.9 5.57143 -0.9V0.9ZM5.8105 0.999026C5.8739 1.06243 5.90952 1.14843 5.90952 1.2381H7.70952C7.70952 0.671037 7.48426 0.127204 7.08329 -0.273766L5.8105 0.999026ZM5.90952 1.2381V1.41762H7.70952V1.2381H5.90952ZM6.55384 2.28054C8.00844 2.71153 9.00476 4.04906 9.00476 5.57143H10.8048C10.8048 3.2557 9.28775 1.21323 7.0652 0.554701L6.55384 2.28054ZM9.00476 5.57143V9.28572H10.8048V5.57143H9.00476ZM9.26837 9.92211L10.5065 11.1602L11.7793 9.88741L10.5412 8.64932L9.26837 9.92211ZM5.90952 11.7619C5.90952 11.8516 5.8739 11.9376 5.8105 12.001L7.08329 13.2738C7.48426 12.8728 7.70952 12.329 7.70952 11.7619H5.90952ZM5.8105 12.001C5.74709 12.0644 5.6611 12.1 5.57143 12.1V13.9C6.13849 13.9 6.68232 13.6747 7.08329 13.2738L5.8105 12.001ZM5.57143 12.1C5.48176 12.1 5.39577 12.0644 5.33236 12.001L4.05957 13.2738C4.46054 13.6747 5.00437 13.9 5.57143 13.9V12.1ZM5.33236 12.001C5.26895 11.9376 5.23333 11.8516 5.23333 11.7619H3.43333C3.43333 12.329 3.6586 12.8728 4.05957 13.2738L5.33236 12.001Z" fill="#252525" mask="url(#path-1-inside-1_4568_2931)"/>
<path d="M3.09521 0.619141C2.57934 0.82549 1.36188 1.67152 0.619019 3.40486" stroke="#252525" stroke-width="0.879699" stroke-linecap="round"/>
<path d="M8.04761 0.619141C8.56349 0.82549 9.78095 1.67152 10.5238 3.40486" stroke="#252525" stroke-width="0.879699" stroke-linecap="round"/>
</svg>
