<svg width="14" height="11" viewBox="0 0 14 11" fill="none" xmlns="http://www.w3.org/2000/svg">
<path d="M4.5 10C4.5 10.2761 4.27614 10.5 4 10.5C3.72385 10.5 3.5 10.2761 3.5 10L4.5 10ZM3.6465 0.646445C3.84176 0.451184 4.15835 0.451185 4.35361 0.646449L7.53557 3.82845C7.73083 4.02371 7.73083 4.34029 7.53556 4.53555C7.3403 4.73082 7.02372 4.73081 6.82846 4.53555L4.00005 1.70711L1.1716 4.53552C0.976341 4.73078 0.659758 4.73078 0.464497 4.53551C0.269236 4.34025 0.269238 4.02367 0.464501 3.82841L3.6465 0.646445ZM3.5 10L3.50005 0.999997L4.50005 1L4.5 10L3.5 10Z" fill="#343541"/>
<path d="M10 0.999997C10 0.723855 9.77614 0.499998 9.5 0.5C9.22385 0.500002 9 0.72386 9 1L10 0.999997ZM9.1465 10.3536C9.34176 10.5488 9.65835 10.5488 9.85361 10.3536L13.0356 7.17155C13.2308 6.97629 13.2308 6.65971 13.0356 6.46445C12.8403 6.26918 12.5237 6.26919 12.3285 6.46445L9.50005 9.29289L6.6716 6.46448C6.47634 6.26922 6.15976 6.26922 5.9645 6.46449C5.76924 6.65975 5.76924 6.97633 5.9645 7.17159L9.1465 10.3536ZM9 1L9.00005 10L10.0001 10L10 0.999997L9 1Z" fill="#343541"/>
</svg>
