<svg width="252" height="196" viewBox="0 0 252 196" fill="none" xmlns="http://www.w3.org/2000/svg">
<path d="M100 53.4998C98.9444 61.6574 97.725 79.913 101.208 88.8997C104.692 97.8863 105.826 111.099 105.958 116.582V157.904C108.465 162.184 113.717 171.705 114.667 175.557C115.933 178.445 118.097 184.249 119.021 186.79C119.285 187.459 119.417 188.876 117.833 189.197C116.25 189.518 105.826 189.866 100.812 190C101.34 191.604 101.525 194.814 98.0417 194.814C93.6875 194.814 82.2083 192.006 79.4375 192.808C76.6667 193.61 74.775 194.5 73 194.5C70.1042 194.5 66.7708 192.808 64.7917 192.808C62.8125 192.808 50.375 195.204 48 194C45.6478 192.808 46.9792 190.267 46.9792 190H31.9375C30.4861 190 27.5833 189.518 27.5833 187.592C27.5833 185.185 39.4583 158.707 40.25 158.707C41.0417 158.707 39.4583 101.337 42.625 96.5223C44.6042 89.7021 49.75 71.2473 46.5833 55.1997M100 53.4998C100.644 53.669 102.561 53.7621 105.562 53.9961C109.679 54.3171 117.569 49.583 121 47.1759C119.812 39.8207 116.883 23.7464 114.667 18.2902C112.45 12.834 108.993 9.59773 107.542 8.66162C107.369 8.5742 106.988 8.38108 106.354 8.05983M100 53.4998C99.9164 53.4151 100.036 53.536 100 53.4998ZM100 53.4998L100.417 35.1402C102.396 31.3957 106.354 23.5859 106.354 22.3021C106.354 21.0183 106.354 12.2723 106.354 8.05983M46.5833 55.1997C46.5833 55.1997 27.4289 51.5988 26 47.9783L33.9167 13.0747C34.3125 12.4061 35.3417 10.8281 36.2917 9.86521C36.5886 9.5643 38.1045 8.8376 40.25 7.90307M46.5833 55.1997L45.7917 37.1461C43.8125 33.268 39.9333 24.7895 40.25 21.9009C40.25 18.6914 40.25 11.2317 40.25 7.90307M57.6667 1.01872C57.5253 1.02443 57.3931 1.03128 57.2708 1.03902C52.7354 2.78583 44.9696 5.84729 40.25 7.90307M57.6667 1.01872C59.9664 0.925714 66.9017 2.67229 70.5 2.99964C76 3.5 82.0764 2.2426 86.9583 1.03902C87.3988 1.00182 88.0722 1.01015 88.9375 1.10378M57.6667 1.01872C62.1528 8.02263 74.6875 17.8451 88.9375 1.10378M88.9375 1.10378C91.1824 1.34667 94.7192 2.1636 98.8333 4.24852C102.67 6.19301 105.049 7.39818 106.354 8.05983" stroke="black" stroke-width="0.5" stroke-linejoin="round"/>
<path d="M47 78L47 72" stroke="#00C17C" stroke-linecap="round"/>
<path d="M99 78L99 72" stroke="#00C17C" stroke-linecap="round"/>
<path d="M47 75L99 75" stroke="#00C17C" stroke-linecap="round"/>
<path d="M104 100L104 94" stroke="#00C17C" stroke-linecap="round"/>
<path d="M42 100L42 94" stroke="#00C17C" stroke-linecap="round"/>
<path d="M42 97H104" stroke="#00C17C" stroke-linecap="round"/>
<path d="M13 195L13 0.999999" stroke="#00C17C" stroke-linecap="round"/>
<path d="M16 1L10 1" stroke="#00C17C" stroke-linecap="round"/>
<path d="M16 195L10 195" stroke="#00C17C" stroke-linecap="round"/>
<path d="M46 46L46 40" stroke="#00C17C" stroke-linecap="round"/>
<path d="M100 46L100 40" stroke="#00C17C" stroke-linecap="round"/>
<path d="M46 43L100 43" stroke="#00C17C" stroke-linecap="round"/>
<circle cx="73.5" cy="35.5" r="5.5" fill="#00C17C"/>
<path d="M74.2695 38H73.3477V34.3242C73.3477 34.2018 73.349 34.0794 73.3516 33.957C73.3542 33.8346 73.3568 33.7148 73.3594 33.5977C73.3646 33.4805 73.3711 33.3685 73.3789 33.2617C73.3242 33.3216 73.2565 33.3867 73.1758 33.457C73.0977 33.5273 73.0143 33.6003 72.9258 33.6758L72.2695 34.1992L71.8086 33.6172L73.5039 32.2891H74.2695V38Z" fill="white"/>
<circle cx="73.5" cy="67.5" r="5.5" fill="#00C17C"/>
<path d="M75.4375 70H71.5703V69.3086L73.0508 67.8086C73.3372 67.5169 73.5729 67.2656 73.7578 67.0547C73.9427 66.8411 74.0794 66.6393 74.168 66.4492C74.2591 66.2591 74.3047 66.0521 74.3047 65.8281C74.3047 65.5521 74.2253 65.3438 74.0664 65.2031C73.9076 65.0599 73.6979 64.9883 73.4375 64.9883C73.1901 64.9883 72.9609 65.0378 72.75 65.1367C72.5417 65.2331 72.3255 65.3711 72.1016 65.5508L71.5977 64.9453C71.7565 64.8099 71.9258 64.6862 72.1055 64.5742C72.2878 64.4622 72.4909 64.3737 72.7148 64.3086C72.9388 64.2409 73.194 64.207 73.4805 64.207C73.8424 64.207 74.1549 64.2721 74.418 64.4023C74.681 64.5299 74.8828 64.7083 75.0234 64.9375C75.1667 65.1667 75.2383 65.4336 75.2383 65.7383C75.2383 66.0456 75.1771 66.3294 75.0547 66.5898C74.9323 66.8503 74.7578 67.1081 74.5312 67.3633C74.3047 67.6159 74.0352 67.8906 73.7227 68.1875L72.7344 69.1523V69.1953H75.4375V70Z" fill="white"/>
<circle cx="73.5" cy="89.5" r="5.5" fill="#00C17C"/>
<path d="M75.2188 87.5938C75.2188 87.8516 75.1667 88.0755 75.0625 88.2656C74.9583 88.4557 74.8151 88.612 74.6328 88.7344C74.4531 88.8542 74.2448 88.9401 74.0078 88.9922V89.0195C74.4635 89.0768 74.8073 89.2201 75.0391 89.4492C75.2734 89.6784 75.3906 89.9818 75.3906 90.3594C75.3906 90.6901 75.3112 90.9857 75.1523 91.2461C74.9935 91.5039 74.75 91.707 74.4219 91.8555C74.0938 92.0039 73.6719 92.0781 73.1562 92.0781C72.8464 92.0781 72.5586 92.0534 72.293 92.0039C72.0299 91.9544 71.7799 91.875 71.543 91.7656V90.9492C71.7852 91.069 72.043 91.1615 72.3164 91.2266C72.5898 91.2917 72.849 91.3242 73.0938 91.3242C73.5703 91.3242 73.9102 91.2357 74.1133 91.0586C74.3164 90.8789 74.418 90.6315 74.418 90.3164C74.418 90.1133 74.3646 89.9466 74.2578 89.8164C74.1536 89.6862 73.9909 89.5885 73.7695 89.5234C73.5508 89.4583 73.2682 89.4258 72.9219 89.4258H72.418V88.6875H72.9258C73.2565 88.6875 73.5221 88.6484 73.7227 88.5703C73.9232 88.4896 74.0677 88.3789 74.1562 88.2383C74.2474 88.0977 74.293 87.9336 74.293 87.7461C74.293 87.5013 74.2135 87.3112 74.0547 87.1758C73.8958 87.0378 73.6602 86.9688 73.3477 86.9688C73.1549 86.9688 72.9792 86.9909 72.8203 87.0352C72.6641 87.0794 72.5195 87.1354 72.3867 87.2031C72.2539 87.2708 72.1276 87.3438 72.0078 87.4219L71.5664 86.7852C71.7826 86.6237 72.0404 86.487 72.3398 86.375C72.6393 86.263 72.9883 86.207 73.3867 86.207C73.9727 86.207 74.4245 86.3333 74.7422 86.5859C75.0599 86.8359 75.2188 87.1719 75.2188 87.5938Z" fill="white"/>
<circle cx="5.5" cy="98.5" r="5.5" fill="#00C17C"/>
<path d="M7.64453 99.7461H6.87109V101H5.96484V99.7461H3.36719V99.0508L5.97656 95.2734H6.87109V98.9844H7.64453V99.7461ZM5.96484 98.9844V97.5664C5.96484 97.4492 5.96615 97.3307 5.96875 97.2109C5.97396 97.0885 5.97917 96.9714 5.98438 96.8594C5.98958 96.7474 5.99479 96.6445 6 96.5508C6.00521 96.4544 6.00911 96.375 6.01172 96.3125H5.98047C5.93099 96.4167 5.8763 96.5234 5.81641 96.6328C5.75651 96.7396 5.69271 96.8438 5.625 96.9453L4.21875 98.9844H5.96484Z" fill="white"/>
<circle cx="154.5" cy="40.5" r="7.5" fill="#00C17C"/>
<path d="M155.144 44H153.991V39.4053C153.991 39.2523 153.993 39.0993 153.996 38.9463C153.999 38.7933 154.003 38.6436 154.006 38.4971C154.012 38.3506 154.021 38.2106 154.03 38.0771C153.962 38.152 153.877 38.2334 153.776 38.3213C153.679 38.4092 153.575 38.5003 153.464 38.5947L152.644 39.249L152.067 38.5215L154.187 36.8613H155.144V44Z" fill="white"/>
<circle cx="154.5" cy="77.5" r="7.5" fill="#00C17C"/>
<path d="M156.604 81H151.77V80.1357L153.62 78.2607C153.978 77.8962 154.273 77.582 154.504 77.3184C154.735 77.0514 154.906 76.7992 155.017 76.5615C155.131 76.3239 155.188 76.0651 155.188 75.7852C155.188 75.4401 155.088 75.1797 154.89 75.0039C154.691 74.8249 154.429 74.7354 154.104 74.7354C153.794 74.7354 153.508 74.7972 153.244 74.9209C152.984 75.0413 152.714 75.2139 152.434 75.4385L151.804 74.6816C152.002 74.5124 152.214 74.3577 152.438 74.2178C152.666 74.0778 152.92 73.9671 153.2 73.8857C153.48 73.8011 153.799 73.7588 154.157 73.7588C154.61 73.7588 155 73.8402 155.329 74.0029C155.658 74.1624 155.91 74.3854 156.086 74.6719C156.265 74.9583 156.354 75.292 156.354 75.6729C156.354 76.057 156.278 76.4118 156.125 76.7373C155.972 77.0628 155.754 77.3851 155.471 77.7041C155.188 78.0199 154.851 78.3633 154.46 78.7344L153.225 79.9404V79.9941H156.604V81Z" fill="white"/>
<circle cx="154.5" cy="113.5" r="7.5" fill="#00C17C"/>
<path d="M156.33 111.492C156.33 111.814 156.265 112.094 156.135 112.332C156.005 112.57 155.826 112.765 155.598 112.918C155.373 113.068 155.113 113.175 154.816 113.24V113.274C155.386 113.346 155.816 113.525 156.105 113.812C156.398 114.098 156.545 114.477 156.545 114.949C156.545 115.363 156.446 115.732 156.247 116.058C156.049 116.38 155.744 116.634 155.334 116.819C154.924 117.005 154.396 117.098 153.752 117.098C153.365 117.098 153.005 117.067 152.673 117.005C152.344 116.943 152.032 116.844 151.735 116.707V115.687C152.038 115.836 152.36 115.952 152.702 116.033C153.044 116.115 153.368 116.155 153.674 116.155C154.27 116.155 154.694 116.045 154.948 115.823C155.202 115.599 155.329 115.289 155.329 114.896C155.329 114.642 155.262 114.433 155.129 114.271C154.999 114.108 154.795 113.986 154.519 113.904C154.245 113.823 153.892 113.782 153.459 113.782H152.829V112.859H153.464C153.877 112.859 154.209 112.811 154.46 112.713C154.711 112.612 154.891 112.474 155.002 112.298C155.116 112.122 155.173 111.917 155.173 111.683C155.173 111.377 155.074 111.139 154.875 110.97C154.676 110.797 154.382 110.711 153.991 110.711C153.75 110.711 153.531 110.739 153.332 110.794C153.137 110.849 152.956 110.919 152.79 111.004C152.624 111.089 152.466 111.18 152.316 111.277L151.765 110.481C152.035 110.28 152.357 110.109 152.731 109.969C153.106 109.829 153.542 109.759 154.04 109.759C154.772 109.759 155.337 109.917 155.734 110.232C156.132 110.545 156.33 110.965 156.33 111.492Z" fill="white"/>
<circle cx="154.5" cy="149.5" r="7.5" fill="#00C17C"/>
<path d="M156.862 151.433H155.896V153H154.763V151.433H151.516V150.563L154.777 145.842H155.896V150.48H156.862V151.433ZM154.763 150.48V148.708C154.763 148.562 154.764 148.413 154.768 148.264C154.774 148.111 154.781 147.964 154.787 147.824C154.794 147.684 154.8 147.556 154.807 147.438C154.813 147.318 154.818 147.219 154.821 147.141H154.782C154.72 147.271 154.652 147.404 154.577 147.541C154.502 147.674 154.423 147.805 154.338 147.932L152.58 150.48H154.763Z" fill="white"/>
<path d="M168.368 45V36.6H171.992C172.928 36.6 173.652 36.788 174.164 37.164C174.684 37.54 174.944 38.072 174.944 38.76C174.944 39.216 174.836 39.6 174.62 39.912C174.412 40.224 174.124 40.46 173.756 40.62C173.396 40.78 173 40.86 172.568 40.86L172.772 40.572C173.308 40.572 173.768 40.656 174.152 40.824C174.544 40.984 174.848 41.228 175.064 41.556C175.28 41.876 175.388 42.276 175.388 42.756C175.388 43.468 175.124 44.02 174.596 44.412C174.076 44.804 173.288 45 172.232 45H168.368ZM169.256 44.268H172.22C172.956 44.268 173.52 44.144 173.912 43.896C174.304 43.64 174.5 43.236 174.5 42.684C174.5 42.14 174.304 41.744 173.912 41.496C173.52 41.24 172.956 41.112 172.22 41.112H169.16V40.38H171.932C172.604 40.38 173.124 40.252 173.492 39.996C173.868 39.74 174.056 39.36 174.056 38.856C174.056 38.344 173.868 37.964 173.492 37.716C173.124 37.46 172.604 37.332 171.932 37.332H169.256V44.268ZM179.839 45.06C179.303 45.06 178.835 44.96 178.435 44.76C178.035 44.56 177.723 44.26 177.499 43.86C177.283 43.46 177.175 42.96 177.175 42.36V38.7H178.027V42.264C178.027 42.936 178.191 43.444 178.519 43.788C178.855 44.124 179.323 44.292 179.923 44.292C180.363 44.292 180.743 44.204 181.063 44.028C181.391 43.844 181.639 43.58 181.807 43.236C181.983 42.892 182.071 42.48 182.071 42V38.7H182.923V45H182.107V43.272L182.239 43.584C182.039 44.048 181.727 44.412 181.303 44.676C180.887 44.932 180.399 45.06 179.839 45.06ZM186.989 45.06C186.469 45.06 185.977 44.988 185.513 44.844C185.049 44.692 184.685 44.504 184.421 44.28L184.805 43.608C185.061 43.8 185.389 43.968 185.789 44.112C186.189 44.248 186.609 44.316 187.049 44.316C187.649 44.316 188.081 44.224 188.345 44.04C188.609 43.848 188.741 43.596 188.741 43.284C188.741 43.052 188.665 42.872 188.513 42.744C188.369 42.608 188.177 42.508 187.937 42.444C187.697 42.372 187.429 42.312 187.133 42.264C186.837 42.216 186.541 42.16 186.245 42.096C185.957 42.032 185.693 41.94 185.453 41.82C185.213 41.692 185.017 41.52 184.865 41.304C184.721 41.088 184.649 40.8 184.649 40.44C184.649 40.096 184.745 39.788 184.937 39.516C185.129 39.244 185.409 39.032 185.777 38.88C186.153 38.72 186.609 38.64 187.145 38.64C187.553 38.64 187.961 38.696 188.369 38.808C188.777 38.912 189.113 39.052 189.377 39.228L189.005 39.912C188.725 39.72 188.425 39.584 188.105 39.504C187.785 39.416 187.465 39.372 187.145 39.372C186.577 39.372 186.157 39.472 185.885 39.672C185.621 39.864 185.489 40.112 185.489 40.416C185.489 40.656 185.561 40.844 185.705 40.98C185.857 41.116 186.053 41.224 186.293 41.304C186.541 41.376 186.809 41.436 187.097 41.484C187.393 41.532 187.685 41.592 187.973 41.664C188.269 41.728 188.537 41.82 188.777 41.94C189.025 42.052 189.221 42.216 189.365 42.432C189.517 42.64 189.593 42.916 189.593 43.26C189.593 43.628 189.489 43.948 189.281 44.22C189.081 44.484 188.785 44.692 188.393 44.844C188.009 44.988 187.541 45.06 186.989 45.06ZM193.149 45.06C192.557 45.06 192.101 44.9 191.781 44.58C191.461 44.26 191.301 43.808 191.301 43.224V37.308H192.153V43.176C192.153 43.544 192.245 43.828 192.429 44.028C192.621 44.228 192.893 44.328 193.245 44.328C193.621 44.328 193.933 44.22 194.181 44.004L194.481 44.616C194.313 44.768 194.109 44.88 193.869 44.952C193.637 45.024 193.397 45.06 193.149 45.06ZM190.173 39.408V38.7H194.073V39.408H190.173ZM198.377 45.06C197.769 45.06 197.221 44.924 196.733 44.652C196.253 44.372 195.873 43.992 195.593 43.512C195.313 43.024 195.173 42.468 195.173 41.844C195.173 41.212 195.313 40.656 195.593 40.176C195.873 39.696 196.253 39.32 196.733 39.048C197.213 38.776 197.761 38.64 198.377 38.64C199.001 38.64 199.553 38.776 200.033 39.048C200.521 39.32 200.901 39.696 201.173 40.176C201.453 40.656 201.593 41.212 201.593 41.844C201.593 42.468 201.453 43.024 201.173 43.512C200.901 43.992 200.521 44.372 200.033 44.652C199.545 44.924 198.993 45.06 198.377 45.06ZM198.377 44.304C198.833 44.304 199.237 44.204 199.589 44.004C199.941 43.796 200.217 43.508 200.417 43.14C200.625 42.764 200.729 42.332 200.729 41.844C200.729 41.348 200.625 40.916 200.417 40.548C200.217 40.18 199.941 39.896 199.589 39.696C199.237 39.488 198.837 39.384 198.389 39.384C197.941 39.384 197.541 39.488 197.189 39.696C196.837 39.896 196.557 40.18 196.349 40.548C196.141 40.916 196.037 41.348 196.037 41.844C196.037 42.332 196.141 42.764 196.349 43.14C196.557 43.508 196.837 43.796 197.189 44.004C197.541 44.204 197.937 44.304 198.377 44.304Z" fill="black"/>
<path d="M172.016 82.072C171.384 82.072 170.8 81.968 170.264 81.76C169.728 81.544 169.264 81.244 168.872 80.86C168.48 80.476 168.172 80.024 167.948 79.504C167.732 78.984 167.624 78.416 167.624 77.8C167.624 77.184 167.732 76.616 167.948 76.096C168.172 75.576 168.48 75.124 168.872 74.74C169.272 74.356 169.74 74.06 170.276 73.852C170.812 73.636 171.396 73.528 172.028 73.528C172.636 73.528 173.208 73.632 173.744 73.84C174.28 74.04 174.732 74.344 175.1 74.752L174.536 75.316C174.192 74.964 173.812 74.712 173.396 74.56C172.98 74.4 172.532 74.32 172.052 74.32C171.548 74.32 171.08 74.408 170.648 74.584C170.216 74.752 169.84 74.996 169.52 75.316C169.2 75.628 168.948 75.996 168.764 76.42C168.588 76.836 168.5 77.296 168.5 77.8C168.5 78.304 168.588 78.768 168.764 79.192C168.948 79.608 169.2 79.976 169.52 80.296C169.84 80.608 170.216 80.852 170.648 81.028C171.08 81.196 171.548 81.28 172.052 81.28C172.532 81.28 172.98 81.2 173.396 81.04C173.812 80.88 174.192 80.624 174.536 80.272L175.1 80.836C174.732 81.244 174.28 81.552 173.744 81.76C173.208 81.968 172.632 82.072 172.016 82.072ZM176.813 82V75.7H177.665V82H176.813ZM177.245 74.308C177.069 74.308 176.921 74.248 176.801 74.128C176.681 74.008 176.621 73.864 176.621 73.696C176.621 73.528 176.681 73.388 176.801 73.276C176.921 73.156 177.069 73.096 177.245 73.096C177.421 73.096 177.569 73.152 177.689 73.264C177.809 73.376 177.869 73.516 177.869 73.684C177.869 73.86 177.809 74.008 177.689 74.128C177.577 74.248 177.429 74.308 177.245 74.308ZM183.252 75.64C183.764 75.64 184.212 75.74 184.596 75.94C184.988 76.132 185.292 76.428 185.508 76.828C185.732 77.228 185.844 77.732 185.844 78.34V82H184.992V78.424C184.992 77.76 184.824 77.26 184.488 76.924C184.16 76.58 183.696 76.408 183.096 76.408C182.648 76.408 182.256 76.5 181.92 76.684C181.592 76.86 181.336 77.12 181.152 77.464C180.976 77.8 180.888 78.208 180.888 78.688V82H180.036V75.7H180.852V77.428L180.72 77.104C180.92 76.648 181.24 76.292 181.68 76.036C182.12 75.772 182.644 75.64 183.252 75.64ZM190.137 82.06C189.545 82.06 189.089 81.9 188.769 81.58C188.449 81.26 188.289 80.808 188.289 80.224V74.308H189.141V80.176C189.141 80.544 189.233 80.828 189.417 81.028C189.609 81.228 189.881 81.328 190.233 81.328C190.609 81.328 190.921 81.22 191.169 81.004L191.469 81.616C191.301 81.768 191.097 81.88 190.857 81.952C190.625 82.024 190.385 82.06 190.137 82.06ZM187.161 76.408V75.7H191.061V76.408H187.161ZM195.624 82.06C195.088 82.06 194.62 81.96 194.22 81.76C193.82 81.56 193.508 81.26 193.284 80.86C193.068 80.46 192.96 79.96 192.96 79.36V75.7H193.812V79.264C193.812 79.936 193.976 80.444 194.304 80.788C194.64 81.124 195.108 81.292 195.708 81.292C196.148 81.292 196.528 81.204 196.848 81.028C197.176 80.844 197.424 80.58 197.592 80.236C197.768 79.892 197.856 79.48 197.856 79V75.7H198.708V82H197.892V80.272L198.024 80.584C197.824 81.048 197.512 81.412 197.088 81.676C196.672 81.932 196.184 82.06 195.624 82.06ZM201.083 82V75.7H201.899V77.416L201.815 77.116C201.991 76.636 202.287 76.272 202.703 76.024C203.119 75.768 203.635 75.64 204.251 75.64V76.468C204.219 76.468 204.187 76.468 204.155 76.468C204.123 76.46 204.091 76.456 204.059 76.456C203.395 76.456 202.875 76.66 202.499 77.068C202.123 77.468 201.935 78.04 201.935 78.784V82H201.083ZM209.284 82V80.608L209.248 80.38V78.052C209.248 77.516 209.096 77.104 208.792 76.816C208.496 76.528 208.052 76.384 207.46 76.384C207.052 76.384 206.664 76.452 206.296 76.588C205.928 76.724 205.616 76.904 205.36 77.128L204.976 76.492C205.296 76.22 205.68 76.012 206.128 75.868C206.576 75.716 207.048 75.64 207.544 75.64C208.36 75.64 208.988 75.844 209.428 76.252C209.876 76.652 210.1 77.264 210.1 78.088V82H209.284ZM207.112 82.06C206.64 82.06 206.228 81.984 205.876 81.832C205.532 81.672 205.268 81.456 205.084 81.184C204.9 80.904 204.808 80.584 204.808 80.224C204.808 79.896 204.884 79.6 205.036 79.336C205.196 79.064 205.452 78.848 205.804 78.688C206.164 78.52 206.644 78.436 207.244 78.436H209.416V79.072H207.268C206.66 79.072 206.236 79.18 205.996 79.396C205.764 79.612 205.648 79.88 205.648 80.2C205.648 80.56 205.788 80.848 206.068 81.064C206.348 81.28 206.74 81.388 207.244 81.388C207.724 81.388 208.136 81.28 208.48 81.064C208.832 80.84 209.088 80.52 209.248 80.104L209.44 80.692C209.28 81.108 209 81.44 208.6 81.688C208.208 81.936 207.712 82.06 207.112 82.06Z" fill="black"/>
<path d="M172.04 118.072C171.408 118.072 170.82 117.968 170.276 117.76C169.74 117.544 169.272 117.244 168.872 116.86C168.48 116.468 168.172 116.016 167.948 115.504C167.732 114.984 167.624 114.416 167.624 113.8C167.624 113.184 167.732 112.62 167.948 112.108C168.172 111.588 168.48 111.136 168.872 110.752C169.272 110.36 169.74 110.06 170.276 109.852C170.812 109.636 171.4 109.528 172.04 109.528C172.672 109.528 173.256 109.636 173.792 109.852C174.328 110.06 174.792 110.356 175.184 110.74C175.584 111.124 175.892 111.576 176.108 112.096C176.332 112.616 176.444 113.184 176.444 113.8C176.444 114.416 176.332 114.984 176.108 115.504C175.892 116.024 175.584 116.476 175.184 116.86C174.792 117.244 174.328 117.544 173.792 117.76C173.256 117.968 172.672 118.072 172.04 118.072ZM174.788 119.668C174.532 119.668 174.284 119.636 174.044 119.572C173.804 119.508 173.56 119.404 173.312 119.26C173.072 119.124 172.824 118.944 172.568 118.72C172.312 118.496 172.032 118.224 171.728 117.904L172.7 117.664C172.948 117.96 173.188 118.204 173.42 118.396C173.66 118.588 173.892 118.728 174.116 118.816C174.348 118.912 174.576 118.96 174.8 118.96C175.424 118.96 175.956 118.704 176.396 118.192L176.828 118.708C176.3 119.348 175.62 119.668 174.788 119.668ZM172.04 117.28C172.544 117.28 173.008 117.196 173.432 117.028C173.864 116.852 174.236 116.604 174.548 116.284C174.868 115.964 175.116 115.596 175.292 115.18C175.468 114.756 175.556 114.296 175.556 113.8C175.556 113.296 175.468 112.836 175.292 112.42C175.116 111.996 174.868 111.628 174.548 111.316C174.236 110.996 173.864 110.752 173.432 110.584C173.008 110.408 172.544 110.32 172.04 110.32C171.536 110.32 171.068 110.408 170.636 110.584C170.204 110.752 169.828 110.996 169.508 111.316C169.196 111.628 168.948 111.996 168.764 112.42C168.588 112.836 168.5 113.296 168.5 113.8C168.5 114.296 168.588 114.756 168.764 115.18C168.948 115.596 169.196 115.964 169.508 116.284C169.828 116.604 170.204 116.852 170.636 117.028C171.068 117.196 171.536 117.28 172.04 117.28ZM180.858 118.06C180.322 118.06 179.854 117.96 179.454 117.76C179.054 117.56 178.742 117.26 178.518 116.86C178.302 116.46 178.194 115.96 178.194 115.36V111.7H179.046V115.264C179.046 115.936 179.21 116.444 179.538 116.788C179.874 117.124 180.342 117.292 180.942 117.292C181.382 117.292 181.762 117.204 182.082 117.028C182.41 116.844 182.658 116.58 182.826 116.236C183.002 115.892 183.09 115.48 183.09 115V111.7H183.942V118H183.126V116.272L183.258 116.584C183.058 117.048 182.746 117.412 182.322 117.676C181.906 117.932 181.418 118.06 180.858 118.06ZM190.265 118V116.608L190.229 116.38V114.052C190.229 113.516 190.077 113.104 189.773 112.816C189.477 112.528 189.033 112.384 188.441 112.384C188.033 112.384 187.645 112.452 187.277 112.588C186.909 112.724 186.597 112.904 186.341 113.128L185.957 112.492C186.277 112.22 186.661 112.012 187.109 111.868C187.557 111.716 188.029 111.64 188.525 111.64C189.341 111.64 189.969 111.844 190.409 112.252C190.857 112.652 191.081 113.264 191.081 114.088V118H190.265ZM188.093 118.06C187.621 118.06 187.209 117.984 186.857 117.832C186.513 117.672 186.249 117.456 186.065 117.184C185.881 116.904 185.789 116.584 185.789 116.224C185.789 115.896 185.865 115.6 186.017 115.336C186.177 115.064 186.433 114.848 186.785 114.688C187.145 114.52 187.625 114.436 188.225 114.436H190.397V115.072H188.249C187.641 115.072 187.217 115.18 186.977 115.396C186.745 115.612 186.629 115.88 186.629 116.2C186.629 116.56 186.769 116.848 187.049 117.064C187.329 117.28 187.721 117.388 188.225 117.388C188.705 117.388 189.117 117.28 189.461 117.064C189.813 116.84 190.069 116.52 190.229 116.104L190.421 116.692C190.261 117.108 189.981 117.44 189.581 117.688C189.189 117.936 188.693 118.06 188.093 118.06ZM195.903 118.06C195.303 118.06 194.763 117.924 194.283 117.652C193.811 117.38 193.439 117.004 193.167 116.524C192.895 116.036 192.759 115.476 192.759 114.844C192.759 114.204 192.895 113.644 193.167 113.164C193.439 112.684 193.811 112.312 194.283 112.048C194.763 111.776 195.303 111.64 195.903 111.64C196.455 111.64 196.947 111.764 197.379 112.012C197.819 112.26 198.167 112.624 198.423 113.104C198.687 113.576 198.819 114.156 198.819 114.844C198.819 115.524 198.691 116.104 198.435 116.584C198.179 117.064 197.831 117.432 197.391 117.688C196.959 117.936 196.463 118.06 195.903 118.06ZM195.963 117.304C196.411 117.304 196.811 117.204 197.163 117.004C197.523 116.796 197.803 116.508 198.003 116.14C198.211 115.764 198.315 115.332 198.315 114.844C198.315 114.348 198.211 113.916 198.003 113.548C197.803 113.18 197.523 112.896 197.163 112.696C196.811 112.488 196.411 112.384 195.963 112.384C195.523 112.384 195.127 112.488 194.775 112.696C194.423 112.896 194.143 113.18 193.935 113.548C193.727 113.916 193.623 114.348 193.623 114.844C193.623 115.332 193.727 115.764 193.935 116.14C194.143 116.508 194.423 116.796 194.775 117.004C195.127 117.204 195.523 117.304 195.963 117.304ZM198.339 118V116.104L198.423 114.832L198.303 113.56V109.096H199.155V118H198.339ZM201.528 118V111.7H202.344V113.416L202.26 113.116C202.436 112.636 202.732 112.272 203.148 112.024C203.564 111.768 204.08 111.64 204.696 111.64V112.468C204.664 112.468 204.632 112.468 204.6 112.468C204.568 112.46 204.536 112.456 204.504 112.456C203.84 112.456 203.32 112.66 202.944 113.068C202.568 113.468 202.38 114.04 202.38 114.784V118H201.528ZM206.251 118V111.7H207.103V118H206.251ZM206.683 110.308C206.507 110.308 206.359 110.248 206.239 110.128C206.119 110.008 206.059 109.864 206.059 109.696C206.059 109.528 206.119 109.388 206.239 109.276C206.359 109.156 206.507 109.096 206.683 109.096C206.859 109.096 207.007 109.152 207.127 109.264C207.247 109.376 207.307 109.516 207.307 109.684C207.307 109.86 207.247 110.008 207.127 110.128C207.015 110.248 206.867 110.308 206.683 110.308ZM209.473 118V109.096H210.325V118H209.473Z" fill="black"/>
<path d="M172.016 155.072C171.384 155.072 170.8 154.968 170.264 154.76C169.728 154.544 169.264 154.244 168.872 153.86C168.48 153.476 168.172 153.024 167.948 152.504C167.732 151.984 167.624 151.416 167.624 150.8C167.624 150.184 167.732 149.616 167.948 149.096C168.172 148.576 168.48 148.124 168.872 147.74C169.272 147.356 169.74 147.06 170.276 146.852C170.812 146.636 171.396 146.528 172.028 146.528C172.636 146.528 173.208 146.632 173.744 146.84C174.28 147.04 174.732 147.344 175.1 147.752L174.536 148.316C174.192 147.964 173.812 147.712 173.396 147.56C172.98 147.4 172.532 147.32 172.052 147.32C171.548 147.32 171.08 147.408 170.648 147.584C170.216 147.752 169.84 147.996 169.52 148.316C169.2 148.628 168.948 148.996 168.764 149.42C168.588 149.836 168.5 150.296 168.5 150.8C168.5 151.304 168.588 151.768 168.764 152.192C168.948 152.608 169.2 152.976 169.52 153.296C169.84 153.608 170.216 153.852 170.648 154.028C171.08 154.196 171.548 154.28 172.052 154.28C172.532 154.28 172.98 154.2 173.396 154.04C173.812 153.88 174.192 153.624 174.536 153.272L175.1 153.836C174.732 154.244 174.28 154.552 173.744 154.76C173.208 154.968 172.632 155.072 172.016 155.072ZM179.1 155.06C178.492 155.06 177.944 154.924 177.456 154.652C176.976 154.372 176.596 153.992 176.316 153.512C176.036 153.024 175.896 152.468 175.896 151.844C175.896 151.212 176.036 150.656 176.316 150.176C176.596 149.696 176.976 149.32 177.456 149.048C177.936 148.776 178.484 148.64 179.1 148.64C179.724 148.64 180.276 148.776 180.756 149.048C181.244 149.32 181.624 149.696 181.896 150.176C182.176 150.656 182.316 151.212 182.316 151.844C182.316 152.468 182.176 153.024 181.896 153.512C181.624 153.992 181.244 154.372 180.756 154.652C180.268 154.924 179.716 155.06 179.1 155.06ZM179.1 154.304C179.556 154.304 179.96 154.204 180.312 154.004C180.664 153.796 180.94 153.508 181.14 153.14C181.348 152.764 181.452 152.332 181.452 151.844C181.452 151.348 181.348 150.916 181.14 150.548C180.94 150.18 180.664 149.896 180.312 149.696C179.96 149.488 179.56 149.384 179.112 149.384C178.664 149.384 178.264 149.488 177.912 149.696C177.56 149.896 177.28 150.18 177.072 150.548C176.864 150.916 176.76 151.348 176.76 151.844C176.76 152.332 176.864 152.764 177.072 153.14C177.28 153.508 177.56 153.796 177.912 154.004C178.264 154.204 178.66 154.304 179.1 154.304ZM191.927 148.64C192.439 148.64 192.883 148.74 193.259 148.94C193.643 149.132 193.939 149.428 194.147 149.828C194.363 150.228 194.471 150.732 194.471 151.34V155H193.619V151.424C193.619 150.76 193.459 150.26 193.139 149.924C192.827 149.58 192.383 149.408 191.807 149.408C191.375 149.408 190.999 149.5 190.679 149.684C190.367 149.86 190.123 150.12 189.947 150.464C189.779 150.8 189.695 151.208 189.695 151.688V155H188.843V151.424C188.843 150.76 188.683 150.26 188.363 149.924C188.043 149.58 187.595 149.408 187.019 149.408C186.595 149.408 186.223 149.5 185.903 149.684C185.583 149.86 185.335 150.12 185.159 150.464C184.991 150.8 184.907 151.208 184.907 151.688V155H184.055V148.7H184.871V150.404L184.739 150.104C184.931 149.648 185.239 149.292 185.663 149.036C186.095 148.772 186.603 148.64 187.187 148.64C187.803 148.64 188.327 148.796 188.759 149.108C189.191 149.412 189.471 149.872 189.599 150.488L189.263 150.356C189.447 149.844 189.771 149.432 190.235 149.12C190.707 148.8 191.271 148.64 191.927 148.64ZM200.034 155.06C199.49 155.06 198.998 154.936 198.558 154.688C198.118 154.432 197.766 154.068 197.502 153.596C197.246 153.116 197.118 152.532 197.118 151.844C197.118 151.156 197.246 150.576 197.502 150.104C197.758 149.624 198.106 149.26 198.546 149.012C198.986 148.764 199.482 148.64 200.034 148.64C200.634 148.64 201.17 148.776 201.642 149.048C202.122 149.312 202.498 149.688 202.77 150.176C203.042 150.656 203.178 151.212 203.178 151.844C203.178 152.484 203.042 153.044 202.77 153.524C202.498 154.004 202.122 154.38 201.642 154.652C201.17 154.924 200.634 155.06 200.034 155.06ZM196.782 157.328V148.7H197.598V150.596L197.514 151.856L197.634 153.128V157.328H196.782ZM199.974 154.304C200.422 154.304 200.822 154.204 201.174 154.004C201.526 153.796 201.806 153.508 202.014 153.14C202.222 152.764 202.326 152.332 202.326 151.844C202.326 151.356 202.222 150.928 202.014 150.56C201.806 150.192 201.526 149.904 201.174 149.696C200.822 149.488 200.422 149.384 199.974 149.384C199.526 149.384 199.122 149.488 198.762 149.696C198.41 149.904 198.13 150.192 197.922 150.56C197.722 150.928 197.622 151.356 197.622 151.844C197.622 152.332 197.722 152.764 197.922 153.14C198.13 153.508 198.41 153.796 198.762 154.004C199.122 154.204 199.526 154.304 199.974 154.304ZM204.915 155V148.7H205.731V150.416L205.647 150.116C205.823 149.636 206.119 149.272 206.535 149.024C206.951 148.768 207.467 148.64 208.083 148.64V149.468C208.051 149.468 208.019 149.468 207.987 149.468C207.955 149.46 207.923 149.456 207.891 149.456C207.227 149.456 206.707 149.66 206.331 150.068C205.955 150.468 205.767 151.04 205.767 151.784V155H204.915ZM209.637 155V148.7H210.489V155H209.637ZM210.069 147.308C209.893 147.308 209.745 147.248 209.625 147.128C209.505 147.008 209.445 146.864 209.445 146.696C209.445 146.528 209.505 146.388 209.625 146.276C209.745 146.156 209.893 146.096 210.069 146.096C210.245 146.096 210.393 146.152 210.513 146.264C210.633 146.376 210.693 146.516 210.693 146.684C210.693 146.86 210.633 147.008 210.513 147.128C210.401 147.248 210.253 147.308 210.069 147.308ZM220.732 148.64C221.244 148.64 221.688 148.74 222.064 148.94C222.448 149.132 222.744 149.428 222.952 149.828C223.168 150.228 223.276 150.732 223.276 151.34V155H222.424V151.424C222.424 150.76 222.264 150.26 221.944 149.924C221.632 149.58 221.188 149.408 220.612 149.408C220.18 149.408 219.804 149.5 219.484 149.684C219.172 149.86 218.928 150.12 218.752 150.464C218.584 150.8 218.5 151.208 218.5 151.688V155H217.648V151.424C217.648 150.76 217.488 150.26 217.168 149.924C216.848 149.58 216.4 149.408 215.824 149.408C215.4 149.408 215.028 149.5 214.708 149.684C214.388 149.86 214.14 150.12 213.964 150.464C213.796 150.8 213.712 151.208 213.712 151.688V155H212.86V148.7H213.676V150.404L213.544 150.104C213.736 149.648 214.044 149.292 214.468 149.036C214.9 148.772 215.408 148.64 215.992 148.64C216.608 148.64 217.132 148.796 217.564 149.108C217.996 149.412 218.276 149.872 218.404 150.488L218.068 150.356C218.252 149.844 218.576 149.432 219.04 149.12C219.512 148.8 220.076 148.64 220.732 148.64ZM228.262 155.06C227.606 155.06 227.03 154.924 226.534 154.652C226.038 154.372 225.65 153.992 225.37 153.512C225.09 153.024 224.95 152.468 224.95 151.844C224.95 151.22 225.082 150.668 225.346 150.188C225.618 149.708 225.986 149.332 226.45 149.06C226.922 148.78 227.45 148.64 228.034 148.64C228.626 148.64 229.15 148.776 229.606 149.048C230.07 149.312 230.434 149.688 230.698 150.176C230.962 150.656 231.094 151.212 231.094 151.844C231.094 151.884 231.09 151.928 231.082 151.976C231.082 152.016 231.082 152.06 231.082 152.108H225.598V151.472H230.626L230.29 151.724C230.29 151.268 230.19 150.864 229.99 150.512C229.798 150.152 229.534 149.872 229.198 149.672C228.862 149.472 228.474 149.372 228.034 149.372C227.602 149.372 227.214 149.472 226.87 149.672C226.526 149.872 226.258 150.152 226.066 150.512C225.874 150.872 225.778 151.284 225.778 151.748V151.88C225.778 152.36 225.882 152.784 226.09 153.152C226.306 153.512 226.602 153.796 226.978 154.004C227.362 154.204 227.798 154.304 228.286 154.304C228.67 154.304 229.026 154.236 229.354 154.1C229.69 153.964 229.978 153.756 230.218 153.476L230.698 154.028C230.418 154.364 230.066 154.62 229.642 154.796C229.226 154.972 228.766 155.06 228.262 155.06ZM236.045 148.64C236.557 148.64 237.005 148.74 237.389 148.94C237.781 149.132 238.085 149.428 238.301 149.828C238.525 150.228 238.637 150.732 238.637 151.34V155H237.785V151.424C237.785 150.76 237.617 150.26 237.281 149.924C236.953 149.58 236.489 149.408 235.889 149.408C235.441 149.408 235.049 149.5 234.713 149.684C234.385 149.86 234.129 150.12 233.945 150.464C233.769 150.8 233.681 151.208 233.681 151.688V155H232.829V148.7H233.645V150.428L233.513 150.104C233.713 149.648 234.033 149.292 234.473 149.036C234.913 148.772 235.437 148.64 236.045 148.64ZM242.93 155.06C242.338 155.06 241.882 154.9 241.562 154.58C241.242 154.26 241.082 153.808 241.082 153.224V147.308H241.934V153.176C241.934 153.544 242.026 153.828 242.21 154.028C242.402 154.228 242.674 154.328 243.026 154.328C243.402 154.328 243.714 154.22 243.962 154.004L244.262 154.616C244.094 154.768 243.89 154.88 243.65 154.952C243.418 155.024 243.178 155.06 242.93 155.06ZM239.954 149.408V148.7H243.854V149.408H239.954ZM248.158 155.06C247.55 155.06 247.002 154.924 246.514 154.652C246.034 154.372 245.654 153.992 245.374 153.512C245.094 153.024 244.954 152.468 244.954 151.844C244.954 151.212 245.094 150.656 245.374 150.176C245.654 149.696 246.034 149.32 246.514 149.048C246.994 148.776 247.542 148.64 248.158 148.64C248.782 148.64 249.334 148.776 249.814 149.048C250.302 149.32 250.682 149.696 250.954 150.176C251.234 150.656 251.374 151.212 251.374 151.844C251.374 152.468 251.234 153.024 250.954 153.512C250.682 153.992 250.302 154.372 249.814 154.652C249.326 154.924 248.774 155.06 248.158 155.06ZM248.158 154.304C248.614 154.304 249.018 154.204 249.37 154.004C249.722 153.796 249.998 153.508 250.198 153.14C250.406 152.764 250.51 152.332 250.51 151.844C250.51 151.348 250.406 150.916 250.198 150.548C249.998 150.18 249.722 149.896 249.37 149.696C249.018 149.488 248.618 149.384 248.17 149.384C247.722 149.384 247.322 149.488 246.97 149.696C246.618 149.896 246.338 150.18 246.13 150.548C245.922 150.916 245.818 151.348 245.818 151.844C245.818 152.332 245.922 152.764 246.13 153.14C246.338 153.508 246.618 153.796 246.97 154.004C247.322 154.204 247.718 154.304 248.158 154.304Z" fill="black"/>
</svg>
