<svg width="10" height="10" viewBox="0 0 10 10" fill="none" xmlns="http://www.w3.org/2000/svg">
<circle cx="5" cy="5" r="5" fill="white"/>
<path d="M7.98532 2.59013C7.88519 2.58279 7.78791 2.62563 7.7259 2.70438L4.42938 6.71991L2.77094 4.93869C2.7012 4.84857 2.58658 4.80522 2.47433 4.82743C2.36272 4.84912 2.27237 4.9319 2.24146 5.04134C2.21048 5.15137 2.24339 5.26895 2.32758 5.34639L4.22384 7.38623C4.28349 7.44913 4.36764 7.48323 4.45406 7.48017C4.54113 7.47659 4.62213 7.43613 4.67693 7.36907L8.19708 3.08816C8.27191 3.00072 8.29048 2.87925 8.2456 2.77343C8.20065 2.6682 8.09973 2.59725 7.98532 2.59013Z" fill="black"/>
</svg>
