<svg width="14" height="21" viewBox="0 0 14 21" fill="none" xmlns="http://www.w3.org/2000/svg">
<path d="M13.5261 16.0877L11.024 13.6711C10.8674 13.5198 10.8652 13.2693 11.019 13.1153L13.1471 10.9843C13.3922 10.7389 13.2186 10.3193 12.872 10.3193H0.981328C0.634564 10.3193 0.461101 10.7393 0.706569 10.9846L9.67951 19.95C9.83147 20.1018 10.0775 20.1017 10.2293 19.9497L13.5311 16.6435C13.6849 16.4894 13.6827 16.2389 13.5261 16.0877Z" fill="#3D4044"/>
<path d="M0.337934 4.44008L2.83997 6.90315C2.99658 7.05732 2.99884 7.31261 2.84498 7.46964L0.716913 9.64159C0.47186 9.89169 0.645414 10.3193 0.991972 10.3193H12.8827C13.2294 10.3193 13.4029 9.89126 13.1574 9.64128L4.18451 0.503451C4.03254 0.348699 3.78648 0.348837 3.63469 0.50376L0.332928 3.8736C0.179074 4.03062 0.181329 4.28591 0.337934 4.44008Z" fill="white"/>
<path fill-rule="evenodd" clip-rule="evenodd" d="M12.8829 10.1C13.0262 10.1 13.1172 9.91249 13.0013 9.79445L4.02838 0.656625C3.96235 0.589377 3.8573 0.589432 3.79133 0.656761L0.489575 4.0266C0.420195 4.09741 0.421311 4.21429 0.491789 4.28367L2.99383 6.74674C3.23656 6.98569 3.23996 7.3794 3.00163 7.62264L0.873561 9.79459C0.757847 9.91269 0.848902 10.1 0.992151 10.1H12.8829ZM13.3139 9.48749C13.689 9.86942 13.4331 10.5381 12.8829 10.5381H0.992151C0.442286 10.5381 0.186231 9.87009 0.560623 9.48797L2.68869 7.31603C2.75807 7.24522 2.75696 7.12834 2.68648 7.05895L0.184438 4.59588C-0.0582952 4.35693 -0.0616894 3.96322 0.176639 3.71998L3.4784 0.350145C3.71601 0.107628 4.1031 0.107406 4.34098 0.349666L13.3139 9.48749Z" fill="#3D4044"/>
</svg>
