<svg width="80" height="80" viewBox="0 0 80 80" fill="none" xmlns="http://www.w3.org/2000/svg">
<ellipse cx="40" cy="39.998" rx="40" ry="40" fill="#00C17C"/>
<path d="M58.0786 24.9185C57.4587 24.8731 56.8566 25.1383 56.4727 25.6257L36.0675 50.4816L25.8018 39.456C25.3701 38.8981 24.6607 38.6298 23.9658 38.7673C23.275 38.9015 22.7157 39.4139 22.5243 40.0914C22.3326 40.7724 22.5363 41.5002 23.0574 41.9796L34.7952 54.6061C35.1644 54.9954 35.6853 55.2065 36.2202 55.1876C36.7592 55.1654 37.2606 54.915 37.5998 54.4999L59.3893 28.0013C59.8525 27.46 59.9674 26.7081 59.6896 26.0531C59.4114 25.4017 58.7867 24.9625 58.0786 24.9185Z" fill="white"/>
</svg>
