<svg width="8" height="7" viewBox="0 0 8 7" fill="none" xmlns="http://www.w3.org/2000/svg">
<path d="M7.27821 0.367209C7.16155 0.358658 7.04821 0.408569 6.97597 0.500307L3.13543 5.17852L1.2033 3.10335C1.12205 2.99836 0.988516 2.94785 0.857735 2.97373C0.727713 2.999 0.622451 3.09544 0.586434 3.22294C0.550344 3.35113 0.588689 3.48811 0.686769 3.57833L2.89597 5.95481C2.96546 6.02808 3.0635 6.06781 3.16419 6.06425C3.26563 6.06007 3.35999 6.01294 3.42383 5.93481L7.52491 0.947422C7.61209 0.845552 7.63372 0.704036 7.58144 0.580756C7.52907 0.458159 7.41149 0.375496 7.27821 0.367209Z" fill="white"/>
</svg>
