<svg width="22" height="30" viewBox="0 0 22 30" fill="none" xmlns="http://www.w3.org/2000/svg">
<path d="M11.2177 14.4817C11.1768 14.4817 11.1495 14.4817 11.1086 14.4817C11.0404 14.4681 10.945 14.4681 10.8632 14.4817C6.9086 14.359 3.92224 11.2499 3.92224 7.41809C3.92224 3.51809 7.09951 0.34082 10.9995 0.34082C14.8995 0.34082 18.0768 3.51809 18.0768 7.41809C18.0632 11.2499 15.0631 14.359 11.2586 14.4817C11.245 14.4817 11.2313 14.4817 11.2177 14.4817ZM10.9995 2.38627C8.23133 2.38627 5.9677 4.64991 5.9677 7.41809C5.9677 10.1454 8.09497 12.3408 10.8086 12.4363C10.8768 12.4226 11.0677 12.4226 11.245 12.4363C13.9177 12.3135 16.0177 10.1181 16.0313 7.41809C16.0313 4.64991 13.7677 2.38627 10.9995 2.38627Z" fill="#343541"/>
<path d="M11.2314 29.3865C8.55869 29.3865 5.87233 28.7046 3.84051 27.341C1.94506 26.0865 0.908691 24.3683 0.908691 22.5001C0.908691 20.6319 1.94506 18.9001 3.84051 17.6319C7.93142 14.9183 14.5587 14.9183 18.6223 17.6319C20.5041 18.8865 21.5541 20.6046 21.5541 22.4728C21.5541 24.341 20.5178 26.0728 18.6223 27.341C16.5769 28.7046 13.9041 29.3865 11.2314 29.3865ZM4.97233 19.3501C3.66324 20.2228 2.95415 21.341 2.95415 22.5137C2.95415 23.6728 3.67687 24.791 4.97233 25.6501C8.36778 27.9274 14.0951 27.9274 17.4905 25.6501C18.7996 24.7774 19.5087 23.6592 19.5087 22.4865C19.5087 21.3274 18.786 20.2092 17.4905 19.3501C14.0951 17.0865 8.36778 17.0865 4.97233 19.3501Z" fill="#343541"/>
</svg>
