<svg width="50" height="50" viewBox="0 0 50 50" fill="none" xmlns="http://www.w3.org/2000/svg">
<circle cx="25" cy="25" r="25" fill="#EBEBEB"/>
<path fill-rule="evenodd" clip-rule="evenodd" d="M9 37.6914V44.2102C13.3355 47.8251 18.9138 50 25 50C31.3888 50 37.2179 47.6035 41.6374 43.6604V37.6914C41.6374 34.93 39.3988 32.6914 36.6374 32.6914H14C11.2386 32.6914 9 34.93 9 37.6914Z" fill="#8D8D8D"/>
<circle cx="25.3187" cy="24.2855" r="12.3626" fill="#D9D9D9"/>
<path d="M13.1871 15.6319C10.9774 20.5561 12.2664 24.7715 13.1871 26.2637C17.0542 24.0255 16.2255 18.7095 16.5017 19.2691C16.7779 19.8287 22.3022 20.9478 21.7498 20.668C21.1974 20.3882 20.9211 18.9893 20.9211 18.4297C22.5784 20.1084 29.2076 22.3467 31.6936 22.6265C28.379 20.1084 27.5503 17.3106 28.1028 17.5904C28.7582 17.9223 30.8649 18.1499 33.6271 18.1499C33.3509 20.668 35.8368 24.8648 37.4941 26.2637C38.8752 24.585 38.8752 18.7095 38.0466 16.751C39.3724 16.5272 40.9929 14.4195 41.6374 13.3936C40.7167 13.3936 38.6542 13.1138 37.7703 11.9947C32.7985 6.67872 27.2741 7.79786 28.1028 7.23829C28.7657 6.79063 28.0107 5.55957 27.5503 5C26.0772 5.93262 22.5232 8.02169 20.0925 8.917C12.9109 10.5957 13.1871 15.3521 13.1871 15.6319Z" fill="#8D8D8D"/>
</svg>
