<svg width="68" height="84" viewBox="0 0 68 84" fill="none" xmlns="http://www.w3.org/2000/svg">
<path d="M58.9581 29.9007L57.6168 30.053L58.9581 29.9007ZM60.7469 45.661L62.0883 45.5088L60.7469 45.661ZM7.25311 45.661L5.91172 45.5088L7.25311 45.661ZM9.04186 29.9007L10.3832 30.053L9.04186 29.9007ZM3.79114 53.4885L2.76315 52.6134H2.76315L3.79114 53.4885ZM64.2089 53.4885L63.1809 54.3635L63.1809 54.3635L64.2089 53.4885ZM43.0798 11.4946H41.7298C41.7298 12.0717 42.0966 12.5849 42.6425 12.7719L43.0798 11.4946ZM24.9202 11.4946L25.3575 12.7719C25.9035 12.5849 26.2702 12.0717 26.2702 11.4946H24.9202ZM47.2641 74.4738C47.5258 73.7756 47.1719 72.9975 46.4738 72.7359C45.7756 72.4742 44.9975 72.8281 44.7359 73.5262L47.2641 74.4738ZM23.2641 73.5262C23.0025 72.8281 22.2244 72.4742 21.5262 72.7359C20.8281 72.9975 20.4742 73.7756 20.7359 74.4738L23.2641 73.5262ZM57.1087 64.65H10.8913V67.35H57.1087V64.65ZM57.6168 30.053L59.4055 45.8133L62.0883 45.5088L60.2995 29.7485L57.6168 30.053ZM8.5945 45.8133L10.3832 30.053L7.70047 29.7485L5.91172 45.5088L8.5945 45.8133ZM4.81914 54.3635C6.92674 51.8876 8.24053 48.932 8.5945 45.8133L5.91172 45.5088C5.62136 48.0671 4.54078 50.5251 2.76315 52.6134L4.81914 54.3635ZM59.4055 45.8133C59.7595 48.932 61.0733 51.8876 63.1809 54.3635L65.2369 52.6134C63.4592 50.5251 62.3786 48.0671 62.0883 45.5088L59.4055 45.8133ZM10.8913 64.65C7.70097 64.65 5.28731 63.0554 4.1272 61.0111C2.98042 58.9903 3.01524 56.4827 4.81914 54.3635L2.76315 52.6134C0.178929 55.6493 0.107046 59.3975 1.77897 62.3437C3.43757 65.2664 6.76802 67.35 10.8913 67.35V64.65ZM57.1087 67.35C61.232 67.35 64.5624 65.2664 66.221 62.3437C67.893 59.3975 67.8211 55.6493 65.2369 52.6134L63.1809 54.3635C64.9848 56.4827 65.0196 58.9903 63.8728 61.0111C62.7127 63.0554 60.299 64.65 57.1087 64.65V67.35ZM44.4298 11.4946V11.0798H41.7298V11.4946H44.4298ZM60.2995 29.7485C59.2664 20.6459 52.4922 13.2904 43.5171 10.2174L42.6425 12.7719C50.8066 15.5671 56.7208 22.1592 57.6168 30.053L60.2995 29.7485ZM26.2702 11.4946V11.0798H23.5702V11.4946H26.2702ZM10.3832 30.053C11.2792 22.1592 17.1934 15.5671 25.3575 12.7719L24.4829 10.2174C15.5078 13.2904 8.7336 20.6459 7.70047 29.7485L10.3832 30.053ZM34 3.35C38.269 3.35 41.7298 6.81074 41.7298 11.0798H44.4298C44.4298 5.31957 39.7602 0.65 34 0.65V3.35ZM34 0.65C28.2398 0.65 23.5702 5.31957 23.5702 11.0798H26.2702C26.2702 6.81074 29.731 3.35 34 3.35V0.65ZM44.7359 73.5262C43.1943 77.6396 38.9993 80.65 34 80.65V83.35C40.0809 83.35 45.3123 79.6819 47.2641 74.4738L44.7359 73.5262ZM34 80.65C29.0007 80.65 24.8057 77.6396 23.2641 73.5262L20.7359 74.4738C22.6877 79.6819 27.9191 83.35 34 83.35V80.65Z" fill="#343541"/>
</svg>
