<svg width="512" height="740" viewBox="0 0 512 740" fill="none" xmlns="http://www.w3.org/2000/svg">
<path d="M502.18 584.053L408.932 494.482C403.094 488.874 403.012 479.591 408.743 473.881L488.053 394.898C497.188 385.802 490.72 370.25 477.803 370.25H34.6566C21.7333 370.25 15.2687 385.817 24.4168 394.908L358.823 727.207C364.487 732.835 373.657 732.828 379.314 727.196L502.365 604.65C508.1 598.944 508.014 589.657 502.18 584.053Z" fill="#252525" stroke="white"/>
<path d="M9.82147 154.266L103.068 244.751C108.905 250.415 108.989 259.793 103.255 265.562L23.9453 345.351C14.8125 354.54 21.2807 370.25 34.1963 370.25H477.344C490.268 370.25 496.732 354.523 487.584 345.34L153.177 9.64916C147.513 3.96408 138.343 3.96916 132.686 9.66051L9.63477 133.456C3.90094 139.224 3.98503 148.603 9.82147 154.266Z" fill="#00C17C" stroke="white"/>
</svg>
