<svg width="22" height="22" viewBox="0 0 22 22" fill="none" xmlns="http://www.w3.org/2000/svg">
<path d="M16.4029 21H5.61899C3.06737 21 1 18.9233 1 16.3717V9.47114C1 8.20464 1.78225 6.61221 2.788 5.82996L7.80743 1.91871C9.31605 0.745337 11.728 0.689462 13.2925 1.78834L19.0476 5.82064C20.1558 6.59358 21.0219 8.2512 21.0219 9.60151V16.381C21.0219 18.9233 18.9545 21 16.4029 21ZM8.66418 3.01758L3.64475 6.92883C2.98356 7.45033 2.39687 8.63302 2.39687 9.47114V16.3717C2.39687 18.1504 3.84031 19.6031 5.61899 19.6031H16.4029C18.1815 19.6031 19.625 18.1597 19.625 16.381V9.60151C19.625 8.70752 18.9824 7.46895 18.2467 6.96608L12.4916 2.93377C11.43 2.18877 9.67924 2.22602 8.66418 3.01758Z" fill="#00C17C" stroke="#00C17C" stroke-width="0.1"/>
<path d="M11.0109 17.2746C10.6291 17.2746 10.3125 16.958 10.3125 16.5762V13.7824C10.3125 13.4006 10.6291 13.084 11.0109 13.084C11.3927 13.084 11.7094 13.4006 11.7094 13.7824V16.5762C11.7094 16.958 11.3927 17.2746 11.0109 17.2746Z" fill="#00C17C" stroke="#00C17C" stroke-width="0.1"/>
</svg>
