<svg width="18" height="22" viewBox="0 0 18 22" fill="none" xmlns="http://www.w3.org/2000/svg">
<path d="M15.2395 7.97519L14.544 8.05413L14.544 8.05413L15.2395 7.97519ZM15.6867 11.9153L16.3823 11.8363L16.3823 11.8363L15.6867 11.9153ZM2.31328 11.9153L1.61774 11.8363L1.61774 11.8363L2.31328 11.9153ZM2.76046 7.97519L3.456 8.05413L2.76046 7.97519ZM1.44779 13.8721L0.914752 13.4184L0.914752 13.4184L1.44779 13.8721ZM16.5522 13.8721L16.0192 14.3259L16.0192 14.3259L16.5522 13.8721ZM11.2699 3.37366H10.5699C10.5699 3.67287 10.7601 3.939 11.0432 4.03592L11.2699 3.37366ZM6.73005 3.37366L6.9568 4.03592C7.23988 3.939 7.43005 3.67287 7.43005 3.37366H6.73005ZM12.6555 19.2457C12.7912 18.8836 12.6077 18.4802 12.2457 18.3445C11.8836 18.2088 11.4802 18.3923 11.3445 18.7543L12.6555 19.2457ZM6.65548 18.7543C6.51981 18.3923 6.11635 18.2088 5.75434 18.3445C5.39233 18.4802 5.20885 18.8836 5.34452 19.2457L6.65548 18.7543ZM14.7772 16.3H3.22281V17.7H14.7772V16.3ZM14.544 8.05413L14.9912 11.9942L16.3823 11.8363L15.9351 7.89625L14.544 8.05413ZM3.00881 11.9942L3.456 8.05413L2.06493 7.89625L1.61774 11.8363L3.00881 11.9942ZM1.98082 14.3259C2.55202 13.6548 2.91178 12.8491 3.00881 11.9942L1.61774 11.8363C1.55369 12.4006 1.31486 12.9484 0.914752 13.4184L1.98082 14.3259ZM14.9912 11.9942C15.0882 12.8491 15.448 13.6548 16.0192 14.3259L17.0852 13.4184C16.6851 12.9484 16.4463 12.4006 16.3823 11.8363L14.9912 11.9942ZM3.22281 16.3C2.5505 16.3 2.07017 15.967 1.84707 15.5739C1.63088 15.1929 1.63461 14.7326 1.98082 14.3259L0.914752 13.4184C0.163931 14.3004 0.140984 15.404 0.62947 16.2648C1.11105 17.1134 2.06675 17.7 3.22281 17.7V16.3ZM14.7772 17.7C15.9333 17.7 16.889 17.1134 17.3705 16.2648C17.859 15.404 17.8361 14.3004 17.0852 13.4184L16.0192 14.3259C16.3654 14.7326 16.3691 15.1929 16.1529 15.5739C15.9298 15.967 15.4495 16.3 14.7772 16.3V17.7ZM11.9699 3.37366V3.26995H10.5699V3.37366H11.9699ZM15.9351 7.89625C15.6584 5.45828 13.8493 3.51692 11.4967 2.7114L11.0432 4.03592C12.9753 4.69746 14.3384 6.24298 14.544 8.05413L15.9351 7.89625ZM7.43005 3.37366V3.26995H6.03005V3.37366H7.43005ZM3.456 8.05413C3.66156 6.24298 5.02466 4.69746 6.9568 4.03592L6.50331 2.7114C4.15066 3.51692 2.34163 5.45828 2.06493 7.89625L3.456 8.05413ZM9 1.7C9.86706 1.7 10.5699 2.40289 10.5699 3.26995H11.9699C11.9699 1.62969 10.6403 0.3 9 0.3V1.7ZM9 0.3C7.35974 0.3 6.03005 1.62969 6.03005 3.26995H7.43005C7.43005 2.40289 8.13294 1.7 9 1.7V0.3ZM11.3445 18.7543C11.0142 19.6357 10.1046 20.3 9 20.3V21.7C10.6654 21.7 12.1124 20.6947 12.6555 19.2457L11.3445 18.7543ZM9 20.3C7.89539 20.3 6.98579 19.6357 6.65548 18.7543L5.34452 19.2457C5.88758 20.6947 7.33455 21.7 9 21.7V20.3Z" fill="#707B81"/>
</svg>
