<svg width="17" height="22" viewBox="0 0 17 22" fill="none" xmlns="http://www.w3.org/2000/svg">
<path d="M8.40815 10.7108C8.37716 10.7108 8.3565 10.7108 8.32552 10.7108C8.27387 10.7005 8.20157 10.7005 8.1396 10.7108C5.1443 10.6178 2.88232 8.26291 2.88232 5.36056C2.88232 2.40657 5.2889 0 8.24289 0C11.1969 0 13.6035 2.40657 13.6035 5.36056C13.5931 8.26291 11.3208 10.6178 8.43913 10.7108C8.4288 10.7108 8.41847 10.7108 8.40815 10.7108ZM8.24289 1.5493C6.14617 1.5493 4.43162 3.26385 4.43162 5.36056C4.43162 7.42629 6.04289 9.0892 8.09829 9.1615C8.14993 9.15117 8.29453 9.15117 8.4288 9.1615C10.4532 9.06854 12.0438 7.40563 12.0542 5.36056C12.0542 3.26385 10.3396 1.5493 8.24289 1.5493Z" fill="#707B81"/>
<path d="M8.41839 22.0005C6.39398 22.0005 4.35923 21.4841 2.82027 20.4512C1.38459 19.501 0.599609 18.1996 0.599609 16.7845C0.599609 15.3695 1.38459 14.0578 2.82027 13.0972C5.91886 11.0418 10.9386 11.0418 14.0165 13.0972C15.4419 14.0474 16.2372 15.3489 16.2372 16.7639C16.2372 18.1789 15.4522 19.4906 14.0165 20.4512C12.4672 21.4841 10.4428 22.0005 8.41839 22.0005ZM3.67754 14.3986C2.68599 15.0597 2.14891 15.9066 2.14891 16.7949C2.14891 17.6728 2.69632 18.5197 3.67754 19.1705C6.24937 20.8953 10.5874 20.8953 13.1592 19.1705C14.1508 18.5094 14.6879 17.6625 14.6879 16.7742C14.6879 15.8963 14.1405 15.0493 13.1592 14.3986C10.5874 12.6841 6.24937 12.6841 3.67754 14.3986Z" fill="#707B81"/>
</svg>
