<svg width="16" height="12" viewBox="0 0 16 12" fill="none" xmlns="http://www.w3.org/2000/svg">
<path d="M6.27538 2.36429C6.27538 1.61071 6.94038 1 7.76218 1C8.58329 1 9.24899 1.61071 9.24899 2.36429C9.24899 2.71786 9.12299 3.04071 8.90459 3.28357C8.48669 3.74786 7.86158 4.21571 7.86158 4.81857V5.02143M7.86158 5.02143C8.3794 5.01285 8.88758 5.16478 9.31899 5.45714L14.5221 9.03571C15.4363 9.665 14.9512 11 13.8081 11H2.19225C1.06105 11 0.568245 9.68929 1.45865 9.05L6.42588 5.485C6.84749 5.18633 7.34765 5.02451 7.86088 5.02071L7.86158 5.02143Z" stroke="#5C5C5C" stroke-linecap="round"/>
</svg>
