<svg width="16" height="11" viewBox="0 0 16 11" fill="none" xmlns="http://www.w3.org/2000/svg">
<path d="M9.55556 1H3.33333C2.60844 1 2.246 1 1.95978 1.11822C1.77106 1.19648 1.59961 1.31115 1.45522 1.45568C1.31082 1.60021 1.19631 1.77177 1.11822 1.96056C1 2.246 1 2.60844 1 3.33333C1.61884 3.33333 2.21233 3.57917 2.64992 4.01675C3.0875 4.45434 3.33333 5.04783 3.33333 5.66667C3.33333 6.2855 3.0875 6.879 2.64992 7.31658C2.21233 7.75417 1.61884 8 1 8C1 8.72489 1 9.08733 1.11822 9.37278C1.19631 9.56156 1.31082 9.73312 1.45522 9.87765C1.59961 10.0222 1.77106 10.1368 1.95978 10.2151C2.246 10.3333 2.60844 10.3333 3.33333 10.3333H9.55556M9.55556 1H12.6667C13.3916 1 13.754 1 14.0394 1.11822C14.2283 1.1964 14.3999 1.31103 14.5444 1.45556C14.689 1.6001 14.8036 1.7717 14.8818 1.96056C15 2.246 15 2.60844 15 3.33333C14.3812 3.33333 13.7877 3.57917 13.3501 4.01675C12.9125 4.45434 12.6667 5.04783 12.6667 5.66667C12.6667 6.2855 12.9125 6.879 13.3501 7.31658C13.7877 7.75417 14.3812 8 15 8C15 8.72489 15 9.08733 14.8818 9.37278C14.8036 9.56164 14.689 9.73324 14.5444 9.87777C14.3999 10.0223 14.2283 10.1369 14.0394 10.2151C13.754 10.3333 13.3916 10.3333 12.6667 10.3333H9.55556M9.55556 1V10.3333" stroke="#5C5C5C" stroke-linecap="round" stroke-linejoin="round"/>
</svg>
