<svg width="16" height="14" viewBox="0 0 16 14" fill="none" xmlns="http://www.w3.org/2000/svg">
<path d="M12.0935 4.95095L10.1315 2.22612C8.71434 0.591346 6.53457 0.591564 5.22697 2.22656L3.37444 4.95095M13.4886 4.95095H1.97938C1.81592 4.94764 1.65381 4.98115 1.50505 5.049C1.3563 5.11684 1.22471 5.21729 1.12004 5.34289C1.01538 5.46849 0.940308 5.61603 0.900399 5.77458C0.86049 5.93313 0.856765 6.09863 0.889497 6.25881L2.08837 12.2532C2.13932 12.5031 2.27629 12.7272 2.47544 12.8865C2.67458 13.0458 2.92328 13.1302 3.17826 13.1251H12.2897C12.5447 13.1302 12.7934 13.0458 12.9925 12.8865C13.1917 12.7272 13.3286 12.5031 13.3796 12.2532L14.5785 6.25881C14.6112 6.09863 14.6075 5.93313 14.5676 5.77458C14.5276 5.61603 14.4526 5.46849 14.3479 5.34289C14.2432 5.21729 14.1117 5.11684 13.9629 5.049C13.8141 4.98115 13.652 4.94764 13.4886 4.95095Z" stroke="#5C5C5C" stroke-linecap="round" stroke-linejoin="round"/>
<path d="M5.22693 8.62899L7.27046 10.8088L10.6764 6.44922" stroke="#5C5C5C" stroke-linecap="round" stroke-linejoin="round"/>
</svg>
