<svg width="14" height="13" viewBox="0 0 14 13" fill="none" xmlns="http://www.w3.org/2000/svg">
<path d="M6.32379 11.6971L6.32308 11.6965C4.51084 10.0333 3.04661 8.68665 2.02961 7.4274C1.01827 6.17517 0.5 5.06945 0.5 3.89646C0.5 1.97843 1.97519 0.5 3.85 0.5C4.91461 0.5 5.94637 1.00419 6.61866 1.79696L7 2.24663L7.38134 1.79696C8.05363 1.00419 9.08539 0.5 10.15 0.5C12.0248 0.5 13.5 1.97843 13.5 3.89646C13.5 5.06945 12.9817 6.17517 11.9704 7.4274C10.9534 8.68665 9.48916 10.0333 7.67692 11.6965L7.67621 11.6971L7 12.3201L6.32379 11.6971Z" stroke="#5C5C5C"/>
</svg>
