<svg width="16" height="16" viewBox="0 0 16 16" fill="none" xmlns="http://www.w3.org/2000/svg">
<path d="M7.99987 15V8M7.99987 4.11111H4.84987C2.69542 4.11111 2.5632 1 4.84987 1C7.29987 1 7.99987 4.11111 7.99987 4.11111ZM7.99987 4.11111H11.1499C13.4023 4.11111 13.4023 1 11.1499 1C8.69987 1 7.99987 4.11111 7.99987 4.11111Z" stroke="#5C5C5C" stroke-linecap="round" stroke-linejoin="round"/>
<path d="M14.2222 8.00022V13.4447C14.2222 13.8572 14.0583 14.2529 13.7666 14.5446C13.4749 14.8363 13.0792 15.0002 12.6667 15.0002H3.33333C2.92077 15.0002 2.52511 14.8363 2.23339 14.5446C1.94167 14.2529 1.77778 13.8572 1.77778 13.4447V8.00022M15 8.00022V5.66688C15 5.25432 14.8361 4.85866 14.5444 4.56694C14.2527 4.27522 13.857 4.11133 13.4444 4.11133H2.55556C2.143 4.11133 1.74733 4.27522 1.45561 4.56694C1.16389 4.85866 1 5.25432 1 5.66688V8.00022H15Z" stroke="#5C5C5C" stroke-linecap="round" stroke-linejoin="round"/>
</svg>
