<svg width="16" height="17" viewBox="0 0 16 17" fill="none" xmlns="http://www.w3.org/2000/svg">
<path d="M11.4937 10.4738C10.5821 9.66975 9.45785 9.14582 8.25586 8.96489C7.05387 8.78396 5.8252 8.95374 4.71732 9.45384C3.60943 9.95394 2.66939 10.7631 2.01001 11.7843C1.35063 12.8054 0.999933 13.9951 1 15.2107H9.28947" stroke="#5C5C5C" stroke-linecap="round" stroke-linejoin="round"/>
<path d="M7.31578 8.89474C9.49585 8.89474 11.2631 7.12744 11.2631 4.94737C11.2631 2.7673 9.49585 1 7.31578 1C5.13571 1 3.36841 2.7673 3.36841 4.94737C3.36841 7.12744 5.13571 8.89474 7.31578 8.89474Z" stroke="#5C5C5C" stroke-linecap="round" stroke-linejoin="round"/>
<path d="M12.8421 11.2637V16.0005M15.2105 13.6321H10.4736" stroke="#5C5C5C" stroke-linecap="round" stroke-linejoin="round"/>
</svg>
