<svg width="16" height="16" viewBox="0 0 16 16" fill="none" xmlns="http://www.w3.org/2000/svg">
<path fill-rule="evenodd" clip-rule="evenodd" d="M8.00015 1C8.35115 1 8.69715 1.026 9.03415 1.076L9.54215 2.615C9.98715 2.742 10.4102 2.923 10.8022 3.151L12.2622 2.447C12.7792 2.844 13.2392 3.312 13.6272 3.836L12.8972 5.283C13.1182 5.679 13.2922 6.105 13.4112 6.553L14.9412 7.086C15.0255 7.733 15.0197 8.38857 14.9242 9.034L13.3852 9.542C13.259 9.98246 13.079 10.4057 12.8492 10.802L13.5532 12.262C13.1556 12.7791 12.6881 13.2385 12.1642 13.627L10.7172 12.897C10.3169 13.1205 9.89023 13.2932 9.44715 13.411L8.91415 14.941C8.26715 15.0253 7.61159 15.0196 6.96615 14.924L6.45815 13.385C6.0177 13.2589 5.5945 13.0788 5.19815 12.849L3.73815 13.553C3.22101 13.1555 2.76162 12.688 2.37315 12.164L3.10315 10.717C2.88016 10.3165 2.70752 9.88989 2.58915 9.447L1.05915 8.913C0.974947 8.26633 0.980668 7.61111 1.07615 6.966L2.61515 6.458C2.74215 6.013 2.92315 5.59 3.15115 5.198L2.44715 3.738C2.84469 3.22086 3.31216 2.76146 3.83615 2.373L5.28315 3.103C5.68344 2.87947 6.11008 2.7068 6.55315 2.589L7.08715 1.059C7.38989 1.01961 7.69487 0.999906 8.00015 1V1Z" stroke="#5C5C5C" stroke-linecap="round" stroke-linejoin="round"/>
<path d="M8.00012 11C9.65698 11 11.0001 9.65685 11.0001 8C11.0001 6.34315 9.65698 5 8.00012 5C6.34327 5 5.00012 6.34315 5.00012 8C5.00012 9.65685 6.34327 11 8.00012 11Z" stroke="#5C5C5C" stroke-linecap="round" stroke-linejoin="round"/>
</svg>
