<svg width="15" height="17" viewBox="0 0 15 17" fill="none" xmlns="http://www.w3.org/2000/svg">
<path d="M4.25 6.35714H9.66667M4.25 8.5H10.75M4.25 10.6429H7.5M14 13.8571V3.14286C14 2.57454 13.7717 2.02949 13.3654 1.62763C12.9591 1.22576 12.408 1 11.8333 1H3.16667C2.59203 1 2.04093 1.22576 1.6346 1.62763C1.22827 2.02949 1 2.57454 1 3.14286V13.8571C1 14.4255 1.22827 14.9705 1.6346 15.3724C2.04093 15.7742 2.59203 16 3.16667 16H11.8333C12.408 16 12.9591 15.7742 13.3654 15.3724C13.7717 14.9705 14 14.4255 14 13.8571Z" stroke="#5C5C5C" stroke-linecap="round" stroke-linejoin="round"/>
</svg>
